<svg width="22" height="20" viewBox="0 0 22 20" fill="none" xmlns="http://www.w3.org/2000/svg">
<path d="M10.9986 5.5L10.9966 10.3098C10.9966 10.4925 11.0691 10.667 11.198 10.7959L14.6389 14.2361L15.611 13.2639L12.3716 10.0251L12.3736 5.5H10.9986Z" fill="white"/>
<path d="M12.375 0C7.53576 0 3.53067 3.59394 2.85988 8.25001H0L3.4375 11.6875L6.87499 8.25001H4.24919C4.90692 4.35445 8.29508 1.37501 12.375 1.37501C16.9243 1.37501 20.625 5.07569 20.625 9.62502C20.625 14.1744 16.9243 17.875 12.375 17.875C9.81771 17.875 7.44638 16.7176 5.86926 14.6994L4.78565 15.5453C6.62523 17.8992 9.39134 19.25 12.375 19.25C17.6823 19.25 22 14.9316 22 9.62502C22 4.31841 17.6823 3.9918e-05 12.375 0Z" fill="white"/>
</svg>
