<svg width="21" height="20" viewBox="0 0 21 20" fill="none" xmlns="http://www.w3.org/2000/svg">
<path d="M18.9306 2.82523C18.8174 1.36444 17.5935 0.210205 16.1042 0.210205H2.8359C1.27218 0.210205 0 1.48238 0 3.0461V16.1672C0 17.7309 1.27218 19.003 2.8359 19.003H18.1641C19.7278 19.003 21 17.7309 21 16.1672V5.55498C21 4.25693 20.123 3.16057 18.9306 2.82523ZM2.8359 1.535H16.1042C16.8252 1.535 17.4294 2.04261 17.5793 2.71912H2.8359C2.28068 2.71912 1.76264 2.88013 1.3248 3.15701V3.0461C1.3248 2.21289 2.00268 1.535 2.8359 1.535ZM18.1641 17.6782H2.8359C2.00268 17.6782 1.3248 17.0004 1.3248 16.1672V5.55498C1.3248 4.72176 2.00268 4.04388 2.8359 4.04388H18.1641C18.9973 4.04388 19.6752 4.72176 19.6752 5.55498V7.86667H15.4513C13.7775 7.86667 12.4158 9.22844 12.4158 10.9022C12.4158 12.576 13.7776 13.9378 15.4513 13.9378H19.6752V16.1672C19.6752 17.0004 18.9973 17.6782 18.1641 17.6782ZM19.6752 12.613H15.4513C14.508 12.613 13.7406 11.8456 13.7406 10.9022C13.7406 9.9589 14.508 9.19147 15.4513 9.19147H19.6752V12.613Z" fill="white"/>
</svg>
