<svg width="37" height="37" viewBox="0 0 37 37" fill="none" xmlns="http://www.w3.org/2000/svg">
<circle cx="18.5" cy="18.5" r="18.5" fill="#F7931A"/>
<path fill-rule="evenodd" clip-rule="evenodd" d="M18.3283 18.0735C19.2122 18.3086 21.1284 18.8184 21.4628 17.4775C21.8054 16.1006 19.9281 15.6883 19.0151 15.4879C18.9145 15.4658 18.8256 15.4462 18.7527 15.4283L18.1102 18.0166C18.1725 18.032 18.2459 18.0515 18.3283 18.0735ZM17.328 22.2404C18.3869 22.5199 20.6948 23.1292 21.0604 21.6535C21.4383 20.1486 19.2033 19.6436 18.1065 19.3957C17.9816 19.3675 17.8714 19.3426 17.7816 19.32L17.0727 22.1741C17.1459 22.1923 17.2318 22.2149 17.328 22.2404ZM24.2902 17.2891C24.1177 18.4592 23.4726 19.0255 22.6099 19.2242C23.7914 19.8393 24.3914 20.7843 23.8214 22.4157C23.1088 24.4483 21.421 24.6208 19.1744 24.1933L18.6306 26.3796L17.3141 26.0496L17.8505 23.897C17.5092 23.8107 17.1604 23.7204 16.8041 23.6232L16.264 25.7871L14.9475 25.4608L15.4914 23.2707C15.1838 23.1919 14.8725 23.1094 14.5537 23.0307L12.8397 22.6032L13.4923 21.0952C13.4923 21.0952 14.4637 21.3543 14.4524 21.3356C14.8238 21.4256 14.9888 21.1818 15.0563 21.0206L15.9152 17.5704C15.9639 17.5816 16.0089 17.5929 16.0539 17.6041C16.0014 17.5816 15.9564 17.5704 15.9189 17.5591L16.534 15.0953C16.549 14.814 16.4515 14.4615 15.9189 14.3302C15.9189 14.3115 14.9625 14.0902 14.9625 14.0902L15.3113 12.6839L17.1304 13.1376L17.1266 13.1451C17.4004 13.2126 17.6817 13.2764 17.9667 13.3439L18.5068 11.18L19.8233 11.5101L19.2944 13.6289C19.647 13.7114 20.0033 13.7902 20.3483 13.8764L20.8734 11.7726L22.1899 12.0988L21.6535 14.2627C23.315 14.8365 24.5302 15.6953 24.2902 17.2891ZM21.9011 7.35863C15.4726 5.7573 8.96162 9.66876 7.36013 16.0966C5.75489 22.5282 9.66673 29.0386 16.0952 30.6399C22.5274 32.245 29.0384 28.3335 30.6399 21.9019C32.2451 15.4741 28.3333 8.95997 21.9011 7.35863Z" fill="white"/>
</svg>
