<svg width="25" height="25" viewBox="0 0 25 25" fill="none" xmlns="http://www.w3.org/2000/svg">
<path d="M15.7309 12.3627C16.5327 11.7388 17.05 10.7657 17.05 9.67355C17.05 8.01876 15.8636 6.6364 14.2969 6.33078V5.44794C14.2969 5.05181 13.9758 4.73065 13.5797 4.73065C13.1835 4.73065 12.8624 5.05181 12.8624 5.44794V6.26723H10.4555V5.44794C10.4555 5.05181 10.1343 4.73065 9.73819 4.73065C9.34205 4.73065 9.0209 5.05181 9.0209 5.44794V6.26723H8.39365C7.99752 6.26723 7.67636 6.58839 7.67636 6.98452C7.67636 7.38066 7.99752 7.70181 8.39365 7.70181H9.0209V17.0234H8.39365C7.99752 17.0234 7.67636 17.3446 7.67636 17.7407C7.67636 18.1369 7.99752 18.458 8.39365 18.458H9.0209V19.2773C9.0209 19.6734 9.34205 19.9946 9.73819 19.9946C10.1343 19.9946 10.4555 19.6734 10.4555 19.2773V18.458H12.8624V19.2773C12.8624 19.6734 13.1835 19.9946 13.5797 19.9946C13.9758 19.9946 14.2969 19.6734 14.2969 19.2773V18.3945C15.8637 18.0889 17.05 16.7064 17.05 15.0517C17.05 13.9595 16.5327 12.9864 15.7309 12.3627ZM10.4554 11.6453V7.70181H13.6437C14.7309 7.70181 15.6154 8.58633 15.6154 9.6735C15.6154 10.7607 14.7309 11.6453 13.6437 11.6453H10.4554ZM13.6437 17.0234H10.4555V13.0799H13.6437C14.7309 13.0799 15.6155 13.9644 15.6155 15.0516C15.6155 16.1388 14.7309 17.0234 13.6437 17.0234Z" fill="white"/>
<path d="M21.0188 3.70635C18.7066 1.39423 15.6325 0.12085 12.3626 0.12085C9.09269 0.12085 6.01848 1.39423 3.70632 3.70635C1.3942 6.01856 0.120819 9.09272 0.120819 12.3626C0.120819 15.6325 1.3942 18.7067 3.70632 21.0189C6.01848 23.331 9.09269 24.6044 12.3626 24.6044C15.6325 24.6044 18.7066 23.331 21.0188 21.0189C23.331 18.7067 24.6043 15.6325 24.6043 12.3626C24.6043 9.09272 23.331 6.01856 21.0188 3.70635ZM12.3626 23.1698C6.40347 23.1698 1.5554 18.3217 1.5554 12.3626C1.5554 6.4035 6.40347 1.55543 12.3626 1.55543C18.3217 1.55543 23.1698 6.4035 23.1698 12.3626C23.1698 18.3217 18.3217 23.1698 12.3626 23.1698Z" fill="white"/>
</svg>
