<svg width="21" height="21" viewBox="0 0 21 21" fill="none" xmlns="http://www.w3.org/2000/svg">
<mask id="path-1-inside-1" fill="white">
<path d="M10.5 2.58795C14.8628 2.58795 18.4121 6.13728 18.4121 10.5C18.4121 11.9008 18.0448 13.2724 17.35 14.4664C17.2646 14.6133 17.3143 14.8016 17.4612 14.887C17.608 14.9725 17.7963 14.9227 17.8818 14.7759C18.6311 13.488 19.0273 12.0094 19.0273 10.5C19.0273 5.79804 15.202 1.97272 10.5 1.97272C5.79806 1.97272 1.97278 5.79804 1.97278 10.5C1.97278 12.4252 2.63539 14.3138 3.8385 15.818C3.89924 15.8939 3.9887 15.9334 4.07893 15.9334C4.14632 15.9334 4.21416 15.9114 4.27088 15.866C4.40357 15.7599 4.4251 15.5663 4.31895 15.4336C3.18655 14.0179 2.58801 12.3119 2.58801 10.5C2.58801 6.13728 6.13734 2.58795 10.5 2.58795Z"/>
</mask>
<path d="M10.5 2.58795C14.8628 2.58795 18.4121 6.13728 18.4121 10.5C18.4121 11.9008 18.0448 13.2724 17.35 14.4664C17.2646 14.6133 17.3143 14.8016 17.4612 14.887C17.608 14.9725 17.7963 14.9227 17.8818 14.7759C18.6311 13.488 19.0273 12.0094 19.0273 10.5C19.0273 5.79804 15.202 1.97272 10.5 1.97272C5.79806 1.97272 1.97278 5.79804 1.97278 10.5C1.97278 12.4252 2.63539 14.3138 3.8385 15.818C3.89924 15.8939 3.9887 15.9334 4.07893 15.9334C4.14632 15.9334 4.21416 15.9114 4.27088 15.866C4.40357 15.7599 4.4251 15.5663 4.31895 15.4336C3.18655 14.0179 2.58801 12.3119 2.58801 10.5C2.58801 6.13728 6.13734 2.58795 10.5 2.58795Z" fill="white"/>
<path d="M17.35 14.4664L10.4355 10.4429L10.4353 10.4432L17.35 14.4664ZM17.8818 14.7759L10.9671 10.7524L10.967 10.7526L17.8818 14.7759ZM3.8385 15.818L10.0864 10.8216L10.0858 10.8209L3.8385 15.818ZM4.27088 15.866L-0.725499 9.61813L-0.725575 9.61819L4.27088 15.866ZM4.31895 15.4336L-1.92833 20.4308L-1.928 20.4312L4.31895 15.4336ZM10.5 10.588C10.5017 10.588 10.4957 10.588 10.4848 10.5857C10.4744 10.5836 10.4644 10.5804 10.4559 10.5768C10.4478 10.5734 10.4425 10.5702 10.4396 10.5683C10.4369 10.5665 10.4357 10.5653 10.4352 10.5648C10.4348 10.5643 10.4336 10.5631 10.4318 10.5604C10.4298 10.5576 10.4267 10.5523 10.4232 10.5442C10.4196 10.5357 10.4164 10.5257 10.4143 10.5153C10.4121 10.5044 10.4121 10.4984 10.4121 10.5H26.4121C26.4121 1.719 19.281 -5.41205 10.5 -5.41205V10.588ZM10.4121 10.5C10.4121 10.5018 10.4118 10.4993 10.4138 10.4916C10.4159 10.4838 10.4215 10.467 10.4355 10.4429L24.2646 18.49C25.6807 16.0564 26.4121 13.2936 26.4121 10.5H10.4121ZM10.4353 10.4432C8.12845 14.4079 9.47121 19.4937 13.4379 21.8017L21.4845 7.97231C25.1575 10.1094 26.4007 14.8186 24.2647 18.4897L10.4353 10.4432ZM13.4379 21.8017C17.4026 24.1085 22.4884 22.7659 24.7965 18.7991L10.967 10.7526C13.1042 7.07947 17.8135 5.83637 21.4845 7.97231L13.4379 21.8017ZM24.7964 18.7993C26.2663 16.2732 27.0273 13.4037 27.0273 10.5H11.0273C11.0273 10.6151 10.996 10.7027 10.9671 10.7524L24.7964 18.7993ZM27.0273 10.5C27.0273 1.37976 19.6202 -6.02728 10.5 -6.02728V9.97272C10.6371 9.97272 10.7598 10.0198 10.87 10.13C10.9802 10.2402 11.0273 10.3629 11.0273 10.5H27.0273ZM10.5 -6.02728C1.37973 -6.02728 -6.02722 1.37981 -6.02722 10.5H9.97278C9.97278 10.3629 10.0198 10.2402 10.13 10.13C10.2402 10.0198 10.3629 9.97272 10.5 9.97272V-6.02728ZM-6.02722 10.5C-6.02722 14.2425 -4.74591 17.8932 -2.40884 20.815L10.0858 10.8209C10.0167 10.7344 9.97278 10.6079 9.97278 10.5H-6.02722ZM-2.40944 20.8143C-0.764719 22.871 1.66527 23.9334 4.07893 23.9334V7.93341C6.31213 7.93341 8.5632 8.91681 10.0864 10.8216L-2.40944 20.8143ZM4.07893 23.9334C5.89624 23.9334 7.74147 23.3341 9.26734 22.1139L-0.725575 9.61819C0.68685 8.48866 2.39639 7.93341 4.07893 7.93341V23.9334ZM9.26727 22.1139C12.8512 19.2479 13.4324 14.0191 10.5659 10.4361L-1.928 20.4312C-4.58216 17.1135 -4.04406 12.272 -0.725499 9.61813L9.26727 22.1139ZM10.5662 10.4365C10.5585 10.4268 10.5586 10.4254 10.5627 10.4328C10.5668 10.4402 10.5725 10.452 10.5777 10.4669C10.5829 10.4818 10.586 10.4947 10.5874 10.5035C10.5889 10.5122 10.588 10.5118 10.588 10.5H-5.41199C-5.41199 14.1293 -4.19469 17.5974 -1.92833 20.4308L10.5662 10.4365ZM10.588 10.5C10.588 10.4984 10.588 10.5044 10.5858 10.5153C10.5837 10.5257 10.5805 10.5357 10.5769 10.5442C10.5734 10.5523 10.5703 10.5576 10.5683 10.5604C10.5665 10.5631 10.5653 10.5643 10.5649 10.5648C10.5644 10.5653 10.5632 10.5665 10.5605 10.5683C10.5576 10.5702 10.5523 10.5734 10.5442 10.5768C10.5357 10.5804 10.5257 10.5836 10.5153 10.5857C10.5044 10.588 10.4984 10.588 10.5 10.588V-5.41205C1.71906 -5.41205 -5.41199 1.719 -5.41199 10.5H10.588Z" fill="white" mask="url(#path-1-inside-1)"/>
<mask id="path-3-inside-2" fill="white">
<path d="M21 10.5C21 4.71028 16.2897 0 10.5 0C4.71028 0 0 4.71028 0 10.5C0 16.2897 4.71028 21 10.5 21C10.6699 21 10.8076 20.8623 10.8076 20.6924V18.7197C10.8076 18.5498 10.6699 18.412 10.5 18.412C8.59039 18.412 6.74518 17.7195 5.30418 16.4621C5.17621 16.3504 4.98192 16.3636 4.87015 16.4916C4.75843 16.6196 4.77168 16.8139 4.89969 16.9256C6.37522 18.2132 8.24426 18.9512 10.1924 19.0217V20.38C4.88348 20.2171 0.615234 15.8477 0.615234 10.5C0.615234 5.04952 5.04952 0.615234 10.5 0.615234C15.9505 0.615234 20.3848 5.04952 20.3848 10.5C20.3848 11.68 20.1812 12.8311 19.7795 13.9213C19.3796 15.0072 18.7919 16.0089 18.0331 16.8986C17.9272 17.0227 17.9367 17.208 18.0547 17.3207L18.5282 17.7727L15.6768 18.3732L16.1444 15.497L16.6257 15.9565C16.7486 16.0738 16.9433 16.0693 17.0607 15.9464C17.178 15.8235 17.1734 15.6288 17.0506 15.5115L16.1469 14.6488C16.0643 14.57 15.9449 14.5433 15.8367 14.5797C15.7284 14.616 15.6492 14.7092 15.6309 14.8219L14.9977 18.7173C14.9814 18.8174 15.0155 18.9191 15.0889 18.9891C15.1622 19.0592 15.2654 19.0886 15.3647 19.0676L19.2264 18.2544C19.3381 18.2309 19.4276 18.1474 19.4589 18.0376C19.4901 17.9278 19.458 17.8097 19.3754 17.7309L18.6871 17.0737C19.4038 16.1855 19.965 15.1979 20.3569 14.1339C20.7836 12.9755 21 11.7528 21 10.5Z"/>
</mask>
<path d="M21 10.5C21 4.71028 16.2897 0 10.5 0C4.71028 0 0 4.71028 0 10.5C0 16.2897 4.71028 21 10.5 21C10.6699 21 10.8076 20.8623 10.8076 20.6924V18.7197C10.8076 18.5498 10.6699 18.412 10.5 18.412C8.59039 18.412 6.74518 17.7195 5.30418 16.4621C5.17621 16.3504 4.98192 16.3636 4.87015 16.4916C4.75843 16.6196 4.77168 16.8139 4.89969 16.9256C6.37522 18.2132 8.24426 18.9512 10.1924 19.0217V20.38C4.88348 20.2171 0.615234 15.8477 0.615234 10.5C0.615234 5.04952 5.04952 0.615234 10.5 0.615234C15.9505 0.615234 20.3848 5.04952 20.3848 10.5C20.3848 11.68 20.1812 12.8311 19.7795 13.9213C19.3796 15.0072 18.7919 16.0089 18.0331 16.8986C17.9272 17.0227 17.9367 17.208 18.0547 17.3207L18.5282 17.7727L15.6768 18.3732L16.1444 15.497L16.6257 15.9565C16.7486 16.0738 16.9433 16.0693 17.0607 15.9464C17.178 15.8235 17.1734 15.6288 17.0506 15.5115L16.1469 14.6488C16.0643 14.57 15.9449 14.5433 15.8367 14.5797C15.7284 14.616 15.6492 14.7092 15.6309 14.8219L14.9977 18.7173C14.9814 18.8174 15.0155 18.9191 15.0889 18.9891C15.1622 19.0592 15.2654 19.0886 15.3647 19.0676L19.2264 18.2544C19.3381 18.2309 19.4276 18.1474 19.4589 18.0376C19.4901 17.9278 19.458 17.8097 19.3754 17.7309L18.6871 17.0737C19.4038 16.1855 19.965 15.1979 20.3569 14.1339C20.7836 12.9755 21 11.7528 21 10.5Z" fill="white"/>
<path d="M5.30418 16.4621L0.0438078 22.4894L0.044251 22.4898L5.30418 16.4621ZM4.87015 16.4916L-1.15691 11.231L-1.15703 11.2311L4.87015 16.4916ZM4.89969 16.9256L10.1596 10.898L10.1591 10.8975L4.89969 16.9256ZM10.1924 19.0217H18.1924V11.3058L10.4816 11.0269L10.1924 19.0217ZM10.1924 20.38L9.94706 28.3762L18.1924 28.6292V20.38H10.1924ZM19.7795 13.9213L12.2727 11.1558L12.2726 11.1562L19.7795 13.9213ZM18.0331 16.8986L24.1187 22.0915L24.12 22.0899L18.0331 16.8986ZM18.0547 17.3207L12.5301 23.1067L12.5305 23.1071L18.0547 17.3207ZM18.5282 17.7727L20.1768 25.601L35.0357 22.4718L24.0524 11.9863L18.5282 17.7727ZM15.6768 18.3732L7.7805 17.0894L5.90827 28.6058L17.3254 26.2015L15.6768 18.3732ZM16.1444 15.497L21.6686 9.71052L10.6848 -0.775309L8.24807 14.2133L16.1444 15.497ZM16.6257 15.9565L11.1016 21.743L11.1027 21.7441L16.6257 15.9565ZM17.0607 15.9464L22.8464 21.4714L22.8473 21.4704L17.0607 15.9464ZM17.0506 15.5115L22.5756 9.72579L22.5747 9.72497L17.0506 15.5115ZM16.1469 14.6488L21.671 8.86229L21.67 8.86132L16.1469 14.6488ZM15.8367 14.5797L18.3803 22.1645L18.3829 22.1636L15.8367 14.5797ZM15.6309 14.8219L7.73467 13.5375L7.73455 13.5383L15.6309 14.8219ZM14.9977 18.7173L22.8939 20.0015L22.894 20.0009L14.9977 18.7173ZM15.0889 18.9891L20.6132 13.2028L20.6115 13.2012L15.0889 18.9891ZM15.3647 19.0676L13.7161 11.2393L13.7112 11.2404L15.3647 19.0676ZM19.2264 18.2544L17.5796 10.4257L17.5778 10.4261L19.2264 18.2544ZM19.4589 18.0376L11.7645 15.8474L11.7643 15.8481L19.4589 18.0376ZM19.3754 17.7309L13.8511 23.5172L13.8523 23.5183L19.3754 17.7309ZM18.6871 17.0737L12.4613 12.0499L7.83935 17.7777L13.1628 22.8601L18.6871 17.0737ZM20.3569 14.1339L12.8501 11.3684L12.8499 11.3688L20.3569 14.1339ZM29 10.5C29 0.291998 20.708 -8 10.5 -8V8C11.8714 8 13 9.12855 13 10.5H29ZM10.5 -8C0.291998 -8 -8 0.291998 -8 10.5H8C8 9.12855 9.12855 8 10.5 8V-8ZM-8 10.5C-8 20.708 0.291998 29 10.5 29V13C9.12855 13 8 11.8714 8 10.5H-8ZM10.5 29C15.0882 29 18.8076 25.2805 18.8076 20.6924H2.80762C2.80762 16.444 6.25161 13 10.5 13V29ZM18.8076 20.6924V18.7197H2.80762V20.6924H18.8076ZM18.8076 18.7197C18.8076 14.1315 15.0882 10.412 10.5 10.412V26.412C6.25161 26.412 2.80762 22.968 2.80762 18.7197H18.8076ZM10.5 10.412C10.5278 10.412 10.5503 10.4224 10.5641 10.4344L0.044251 22.4898C2.94003 25.0167 6.65303 26.412 10.5 26.412V10.412ZM10.5646 10.4348C7.10752 7.41761 1.85981 7.77473 -1.15691 11.231L10.8972 21.7523C8.10404 24.9524 3.2449 25.2832 0.0438078 22.4894L10.5646 10.4348ZM-1.15703 11.2311C-4.17511 14.689 -3.81665 19.9377 -0.359731 22.9538L10.1591 10.8975C13.36 13.6902 13.692 18.5502 10.8973 21.7521L-1.15703 11.2311ZM-0.360269 22.9533C2.49769 25.4473 6.12172 26.8797 9.90321 27.0165L10.4816 11.0269C10.3668 11.0228 10.2528 10.9792 10.1596 10.898L-0.360269 22.9533ZM2.19238 19.0217V20.38H18.1924V19.0217H2.19238ZM10.4377 12.3838C9.43535 12.353 8.61523 11.5108 8.61523 10.5H-7.38477C-7.38477 20.1846 0.331618 28.0813 9.94706 28.3762L10.4377 12.3838ZM8.61523 10.5C8.61523 9.46779 9.46779 8.61523 10.5 8.61523V-7.38477C0.631238 -7.38477 -7.38477 0.631238 -7.38477 10.5H8.61523ZM10.5 8.61523C11.5322 8.61523 12.3848 9.46779 12.3848 10.5H28.3848C28.3848 0.631238 20.3688 -7.38477 10.5 -7.38477V8.61523ZM12.3848 10.5C12.3848 10.7515 12.3429 10.9653 12.2727 11.1558L27.2863 16.6868C28.0194 14.6969 28.3848 12.6085 28.3848 10.5H12.3848ZM12.2726 11.1562C12.2026 11.3461 12.099 11.5282 11.9463 11.7072L24.12 22.0899C25.4849 20.4896 26.5565 18.6683 27.2865 16.6863L12.2726 11.1562ZM11.9476 11.7057C9.08481 15.0605 9.34378 20.0643 12.5301 23.1067L23.5794 11.5347C26.5296 14.3516 26.7696 18.9849 24.1187 22.0915L11.9476 11.7057ZM12.5305 23.1071L13.0039 23.5591L24.0524 11.9863L23.579 11.5343L12.5305 23.1071ZM16.8796 9.94439L14.0283 10.5449L17.3254 26.2015L20.1768 25.601L16.8796 9.94439ZM23.5732 19.6569L24.0407 16.7807L8.24807 14.2133L7.7805 17.0894L23.5732 19.6569ZM10.6202 21.2835L11.1016 21.743L22.1499 10.17L21.6686 9.71052L10.6202 21.2835ZM11.1027 21.7441C14.4202 24.9099 19.6774 24.7899 22.8464 21.4714L11.2749 10.4214C14.2092 7.34867 19.077 7.23766 22.1487 10.1689L11.1027 21.7441ZM22.8473 21.4704C26.0156 18.1515 25.8929 12.8936 22.5756 9.72579L11.5256 21.2972C8.45403 18.3641 8.34033 13.4956 11.274 10.4224L22.8473 21.4704ZM22.5747 9.72497L21.671 8.86229L10.6228 20.4353L11.5264 21.298L22.5747 9.72497ZM21.67 8.86132C19.4427 6.7357 16.2177 6.01291 13.2905 6.99567L18.3829 22.1636C15.6721 23.0737 12.6859 22.4043 10.6238 20.4363L21.67 8.86132ZM13.2931 6.9948C10.3678 7.97581 8.22941 10.496 7.73467 13.5375L23.5271 16.1064C23.069 18.9224 21.0891 21.2561 18.3803 22.1645L13.2931 6.9948ZM7.73455 13.5383L7.10131 17.4336L22.894 20.0009L23.5272 16.1056L7.73455 13.5383ZM7.1014 17.433C6.66168 20.1367 7.58294 22.8847 9.56622 24.7771L20.6115 13.2012C22.448 14.9535 23.3011 17.4981 22.8939 20.0015L7.1014 17.433ZM9.56453 24.7755C11.544 26.6653 14.3317 27.4624 17.0181 26.8949L13.7112 11.2404C16.1991 10.7148 18.7805 11.4531 20.6132 13.2028L9.56453 24.7755ZM17.0132 26.8959L20.875 26.0827L17.5778 10.4261L13.7161 11.2393L17.0132 26.8959ZM20.8732 26.083C23.8924 25.448 26.3097 23.1925 27.1535 20.227L11.7643 15.8481C12.5456 13.1023 14.7839 11.0138 17.5796 10.4257L20.8732 26.083ZM27.1532 20.2277C27.9972 17.2627 27.1301 14.0729 24.8985 11.9434L13.8523 23.5183C11.786 21.5464 10.983 18.5928 11.7645 15.8474L27.1532 20.2277ZM24.8997 11.9445L24.2114 11.2874L13.1628 22.8601L13.8511 23.5172L24.8997 11.9445ZM24.913 22.0975C26.1725 20.5366 27.1684 18.7871 27.8638 16.899L12.8499 11.3688C12.7616 11.6087 12.6351 11.8345 12.4613 12.0499L24.913 22.0975ZM27.8637 16.8994C28.6216 14.842 29 12.6821 29 10.5H13C13 10.8235 12.9457 11.1089 12.8501 11.3684L27.8637 16.8994Z" fill="white" mask="url(#path-3-inside-2)"/>
<mask id="path-5-inside-3" fill="white">
<path d="M11.5268 10.1628C11.2719 10.0727 11.0418 9.9877 10.8333 9.90628V6.66006C11.5415 6.7176 11.9714 7.09359 11.9981 7.11763C12.123 7.23186 12.3169 7.22365 12.4318 7.09917C12.547 6.97428 12.5391 6.77966 12.4142 6.66449C12.3819 6.63463 11.7928 6.10389 10.8333 6.04236V5.23944C10.8333 5.06955 10.6956 4.93182 10.5257 4.93182C10.3558 4.93182 10.2181 5.06955 10.2181 5.23944V6.06947C10.0717 6.09125 9.91978 6.12419 9.76207 6.17169C9.0306 6.39206 8.48341 7.02108 8.33411 7.81338C8.19967 8.52693 8.42222 9.21029 8.91498 9.59678C9.23158 9.84509 9.63722 10.0724 10.2181 10.3197V14.2565C9.55892 14.2453 9.19319 14.1585 8.53124 13.7254C8.38903 13.6324 8.19839 13.6723 8.10541 13.8145C8.01239 13.9566 8.05226 14.1473 8.19442 14.2403C8.97958 14.7539 9.46553 14.8585 10.2181 14.8715V15.7606C10.2181 15.9305 10.3558 16.0682 10.5257 16.0682C10.6956 16.0682 10.8333 15.9305 10.8333 15.7606V14.8533C11.3726 14.7903 11.8601 14.5698 12.2566 14.2055C12.6821 13.8145 12.9693 13.2847 13.0653 12.7137C13.2588 11.5629 12.6549 10.5616 11.5268 10.1628ZM9.29466 9.11263C8.98331 8.86842 8.84693 8.41421 8.93869 7.92724C9.02223 7.4839 9.32903 6.94462 9.93947 6.76071C10.0352 6.73192 10.1278 6.71022 10.218 6.69349V9.64788C9.81831 9.46495 9.52537 9.29359 9.29466 9.11263ZM12.4586 12.6117C12.3387 13.3248 11.7843 14.09 10.8333 14.2335V10.5649C10.9863 10.6225 11.1485 10.6817 11.3217 10.7429C12.3315 11.0998 12.5711 11.9423 12.4586 12.6117Z"/>
</mask>
<path d="M11.5268 10.1628C11.2719 10.0727 11.0418 9.9877 10.8333 9.90628V6.66006C11.5415 6.7176 11.9714 7.09359 11.9981 7.11763C12.123 7.23186 12.3169 7.22365 12.4318 7.09917C12.547 6.97428 12.5391 6.77966 12.4142 6.66449C12.3819 6.63463 11.7928 6.10389 10.8333 6.04236V5.23944C10.8333 5.06955 10.6956 4.93182 10.5257 4.93182C10.3558 4.93182 10.2181 5.06955 10.2181 5.23944V6.06947C10.0717 6.09125 9.91978 6.12419 9.76207 6.17169C9.0306 6.39206 8.48341 7.02108 8.33411 7.81338C8.19967 8.52693 8.42222 9.21029 8.91498 9.59678C9.23158 9.84509 9.63722 10.0724 10.2181 10.3197V14.2565C9.55892 14.2453 9.19319 14.1585 8.53124 13.7254C8.38903 13.6324 8.19839 13.6723 8.10541 13.8145C8.01239 13.9566 8.05226 14.1473 8.19442 14.2403C8.97958 14.7539 9.46553 14.8585 10.2181 14.8715V15.7606C10.2181 15.9305 10.3558 16.0682 10.5257 16.0682C10.6956 16.0682 10.8333 15.9305 10.8333 15.7606V14.8533C11.3726 14.7903 11.8601 14.5698 12.2566 14.2055C12.6821 13.8145 12.9693 13.2847 13.0653 12.7137C13.2588 11.5629 12.6549 10.5616 11.5268 10.1628ZM9.29466 9.11263C8.98331 8.86842 8.84693 8.41421 8.93869 7.92724C9.02223 7.4839 9.32903 6.94462 9.93947 6.76071C10.0352 6.73192 10.1278 6.71022 10.218 6.69349V9.64788C9.81831 9.46495 9.52537 9.29359 9.29466 9.11263ZM12.4586 12.6117C12.3387 13.3248 11.7843 14.09 10.8333 14.2335V10.5649C10.9863 10.6225 11.1485 10.6817 11.3217 10.7429C12.3315 11.0998 12.5711 11.9423 12.4586 12.6117Z" fill="white"/>
<path d="M10.8333 9.90628H2.83332V15.3709L7.92371 17.3584L10.8333 9.90628ZM10.8333 6.66006L11.4812 -1.31366L2.83332 -2.01637V6.66006H10.8333ZM11.9981 7.11763L17.3973 1.21436L17.3739 1.19295L17.3503 1.17173L11.9981 7.11763ZM12.4318 7.09917L18.3098 12.5259L18.3129 12.5225L12.4318 7.09917ZM12.4142 6.66449L6.98922 12.5441L6.99087 12.5456L12.4142 6.66449ZM10.8333 6.04236H2.83332V13.5458L10.3214 14.026L10.8333 6.04236ZM10.2181 6.06947L11.3957 13.9823L18.2181 12.967V6.06947H10.2181ZM9.76207 6.17169L7.45507 -1.48845L7.45431 -1.48822L9.76207 6.17169ZM8.33411 7.81338L0.472472 6.33197L0.472455 6.33206L8.33411 7.81338ZM8.91498 9.59678L3.97778 15.8915L3.97792 15.8917L8.91498 9.59678ZM10.2181 10.3197H18.2181V5.03099L13.3521 2.95912L10.2181 10.3197ZM10.2181 14.2565L10.0822 22.2553L18.2181 22.3935V14.2565H10.2181ZM8.53124 13.7254L12.9109 7.03071L12.9094 7.02976L8.53124 13.7254ZM8.10541 13.8145L14.7996 18.1948L14.8011 18.1926L8.10541 13.8145ZM8.19442 14.2403L12.574 7.54555L12.5735 7.5452L8.19442 14.2403ZM10.2181 14.8715H18.2181V7.00806L10.3558 6.87265L10.2181 14.8715ZM10.8333 14.8533L9.90497 6.90739L2.83332 7.73359V14.8533H10.8333ZM12.2566 14.2055L17.669 20.0967L17.6694 20.0963L12.2566 14.2055ZM13.0653 12.7137L20.9546 14.0403L20.9547 14.0397L13.0653 12.7137ZM8.93869 7.92724L1.07707 6.44568L1.07701 6.44601L8.93869 7.92724ZM9.93947 6.76071L7.63436 -0.9L7.63167 -0.899189L9.93947 6.76071ZM10.218 6.69349H18.218V-2.92656L8.75928 -1.17239L10.218 6.69349ZM10.218 9.64788L6.88907 16.9224L18.218 22.1068V9.64788H10.218ZM10.8333 14.2335H2.83328V23.5313L12.027 22.1439L10.8333 14.2335ZM10.8333 10.5649L13.6533 3.07841L2.83328 -0.997214V10.5649H10.8333ZM11.3217 10.7429L13.9879 3.20023L13.9872 3.20001L11.3217 10.7429ZM14.1935 2.62037C14.0012 2.55241 13.8543 2.49765 13.7429 2.45416L7.92371 17.3584C8.22936 17.4777 8.54256 17.593 8.86008 17.7053L14.1935 2.62037ZM18.8333 9.90628V6.66006H2.83332V9.90628H18.8333ZM10.1854 14.6338C9.25831 14.5584 8.50616 14.274 7.96523 13.9912C7.437 13.7151 7.00561 13.3874 6.64586 13.0635L17.3503 1.17173C16.7135 0.598477 14.6821 -1.05357 11.4812 -1.31366L10.1854 14.6338ZM6.59887 13.0209C9.97576 16.1094 15.2099 15.8835 18.3098 12.5259L6.5538 1.67245C9.4238 -1.43621 14.2702 -1.64573 17.3973 1.21436L6.59887 13.0209ZM18.3129 12.5225C21.4218 9.15122 21.2121 3.8953 17.8376 0.783395L6.99087 12.5456C3.8661 9.66402 3.67212 4.79734 6.55069 1.67582L18.3129 12.5225ZM17.8392 0.784918C17.2367 0.22896 14.9681 -1.70894 11.3452 -1.94124L10.3214 14.026C9.42754 13.9687 8.713 13.6931 8.21802 13.4301C7.73498 13.1735 7.33634 12.8643 6.98922 12.5441L17.8392 0.784918ZM18.8333 6.04236V5.23944H2.83332V6.04236H18.8333ZM18.8333 5.23944C18.8333 0.651271 15.1139 -3.06818 10.5257 -3.06818V12.9318C6.27732 12.9318 2.83332 9.48784 2.83332 5.23944H18.8333ZM10.5257 -3.06818C5.93756 -3.06818 2.21809 0.651255 2.21809 5.23944H18.2181C18.2181 9.48785 14.7741 12.9318 10.5257 12.9318V-3.06818ZM2.21809 5.23944V6.06947H18.2181V5.23944H2.21809ZM9.04047 -1.84338C8.52701 -1.76696 7.99684 -1.65162 7.45507 -1.48845L12.0691 13.8318C11.8427 13.9 11.6165 13.9495 11.3957 13.9823L9.04047 -1.84338ZM7.45431 -1.48822C3.67118 -0.348449 1.13657 2.80771 0.472472 6.33197L16.1958 9.29479C15.8303 11.2344 14.39 13.1326 12.0698 13.8316L7.45431 -1.48822ZM0.472455 6.33206C-0.107495 9.40997 0.711091 13.3294 3.97778 15.8915L13.8522 3.30201C16.1333 5.09121 16.5068 7.64388 16.1958 9.2947L0.472455 6.33206ZM3.97792 15.8917C5.0469 16.7301 6.1447 17.2803 7.08405 17.6802L13.3521 2.95912C13.1297 2.86443 13.4163 2.96012 13.852 3.3019L3.97792 15.8917ZM2.21809 10.3197V14.2565H18.2181V10.3197H2.21809ZM10.354 6.25763C10.3322 6.25726 10.9167 6.25842 11.6818 6.48871C12.4362 6.71581 12.8987 7.02275 12.9109 7.03071L4.15162 20.4201C4.82574 20.8611 5.8021 21.428 7.06965 21.8096C8.34781 22.1943 9.44486 22.2445 10.0822 22.2553L10.354 6.25763ZM12.9094 7.02976C9.07207 4.52061 3.92255 5.5934 1.40976 9.4363L14.8011 18.1926C12.4742 21.7511 7.706 22.7442 4.15308 20.4211L12.9094 7.02976ZM1.41122 9.43407C-1.10137 13.2739 -0.0248966 18.4236 3.81538 20.9354L12.5735 7.5452C16.1294 9.87104 17.1261 14.6394 14.7996 18.1948L1.41122 9.43407ZM3.81485 20.935C4.63497 21.4715 5.67526 22.0416 6.96775 22.4205C8.25696 22.7985 9.36951 22.858 10.0803 22.8703L10.3558 6.87265C10.3141 6.87194 10.8074 6.87274 11.4692 7.06676C12.1343 7.26176 12.539 7.52268 12.574 7.54555L3.81485 20.935ZM2.21809 14.8715V15.7606H18.2181V14.8715H2.21809ZM2.21809 15.7606C2.21809 20.3488 5.93756 24.0682 10.5257 24.0682V8.06822C14.7741 8.06822 18.2181 11.5122 18.2181 15.7606H2.21809ZM10.5257 24.0682C15.1139 24.0682 18.8333 20.3488 18.8333 15.7606H2.83332C2.83332 11.5122 6.27732 8.06822 10.5257 8.06822V24.0682ZM18.8333 15.7606V14.8533H2.83332V15.7606H18.8333ZM11.7617 22.7993C13.9398 22.5448 16.0059 21.6246 17.669 20.0967L6.84431 8.31422C7.71426 7.51499 8.80527 7.03587 9.90497 6.90739L11.7617 22.7993ZM17.6694 20.0963C19.4079 18.4989 20.5642 16.3618 20.9546 14.0403L5.1761 11.3871C5.37443 10.2077 5.95637 9.13009 6.84391 8.31459L17.6694 20.0963ZM20.9547 14.0397C21.8163 8.91332 18.8466 4.26513 14.1929 2.62018L8.86062 17.7055C7.83535 17.3431 6.71423 16.5697 5.94123 15.2881C5.16155 13.9954 4.97581 12.5789 5.17601 11.3877L20.9547 14.0397ZM14.2319 2.81791C16.9002 4.9108 17.0957 7.84086 16.8004 9.40846L1.07701 6.44601C0.598151 8.98757 1.0664 12.826 4.3574 15.4073L14.2319 2.81791ZM16.8003 9.40879C16.523 10.8801 15.3697 13.4799 12.2473 14.4206L7.63167 -0.899189C3.28839 0.409368 1.52144 4.0877 1.07707 6.44568L16.8003 9.40879ZM12.2446 14.4214C12.0349 14.4845 11.8428 14.5286 11.6768 14.5594L8.75928 -1.17239C8.41277 -1.10813 8.03542 -1.02068 7.63436 -0.9L12.2446 14.4214ZM2.21804 6.69349V9.64788H18.218V6.69349H2.21804ZM13.547 2.37341C13.4984 2.35118 13.8062 2.48401 14.2319 2.81793L4.35738 15.4073C5.24452 16.1032 6.13818 16.5787 6.88907 16.9224L13.547 2.37341ZM4.56929 11.2853C4.90121 9.31099 6.49583 6.79743 9.63957 6.32303L12.027 22.1439C17.0728 21.3825 19.7761 17.3385 20.3478 13.938L4.56929 11.2853ZM18.8333 14.2335V10.5649H2.83328V14.2335H18.8333ZM8.0133 18.0514C8.22254 18.1302 8.43657 18.2081 8.65614 18.2857L13.9872 3.20001C13.8605 3.15521 13.75 3.11485 13.6533 3.07841L8.0133 18.0514ZM8.65553 18.2855C7.3457 17.8225 5.99307 16.7878 5.17765 15.1816C4.44419 13.7368 4.39379 12.3291 4.5693 11.2852L20.3478 13.9381C20.6359 12.2249 20.522 10.0612 19.4444 7.93866C18.2849 5.65466 16.3075 4.02018 13.9879 3.20023L8.65553 18.2855Z" fill="white" mask="url(#path-5-inside-3)"/>
</svg>
