<svg width="20" height="18" viewBox="0 0 20 18" fill="none" xmlns="http://www.w3.org/2000/svg">
<path d="M18.644 0.362396H1.21133C0.911723 0.362396 0.668823 0.638482 0.668823 0.979025V16.8305C0.668823 17.171 0.911723 17.4471 1.21133 17.4471H18.644C18.9436 17.4471 19.1865 17.171 19.1865 16.8305V0.979025C19.1865 0.638482 18.9436 0.362396 18.644 0.362396ZM18.1015 16.2139H1.75384V5.55852H18.1015V16.2139ZM18.1015 4.32527H1.75384V1.59565H18.1015V4.32527Z" fill="#CFD6EB"/>
<path d="M6.44117 8.28815H4.6979C4.39829 8.28815 4.1554 8.56423 4.1554 8.90478C4.1554 9.24532 4.39829 9.52141 4.6979 9.52141H6.44117C6.74078 9.52141 6.98367 9.24532 6.98367 8.90478C6.98367 8.56423 6.74078 8.28815 6.44117 8.28815Z" fill="#CFD6EB"/>
<path d="M13.9951 8.94858C13.2971 8.94858 12.6715 9.30647 12.2519 9.86888C11.8322 9.30647 11.2066 8.94858 10.5086 8.94858C9.24818 8.94858 8.22284 10.1141 8.22284 11.5466C8.22284 12.9792 9.24822 14.1447 10.5086 14.1447C11.2066 14.1447 11.8322 13.7868 12.2519 13.2244C12.6715 13.7868 13.2971 14.1447 13.9951 14.1447C15.2555 14.1447 16.2809 12.9792 16.2809 11.5466C16.2809 10.1141 15.2555 8.94858 13.9951 8.94858ZM10.5085 12.9115C9.84647 12.9115 9.30783 12.2992 9.30783 11.5467C9.30783 10.7942 9.84647 10.1819 10.5085 10.1819C11.1707 10.1819 11.7093 10.7942 11.7093 11.5467C11.7093 12.2992 11.1707 12.9115 10.5085 12.9115ZM13.9951 12.9115C13.333 12.9115 12.7944 12.2992 12.7944 11.5467C12.7944 10.7942 13.333 10.1819 13.9951 10.1819C14.6572 10.1819 15.1958 10.7942 15.1958 11.5467C15.1958 12.2992 14.6572 12.9115 13.9951 12.9115Z" fill="#CFD6EB"/>
</svg>
