<svg width="60" height="60" viewBox="0 0 60 60" fill="none" xmlns="http://www.w3.org/2000/svg">
<path d="M59.5366 53.322L58.6807 52.4659C58.3375 52.1225 57.7809 52.1227 57.4378 52.4658C57.0945 52.809 57.0945 53.3655 57.4377 53.7087L58.1693 54.4404L54.4406 58.1692L48.1015 51.8302L51.8303 48.1014L54.7876 51.0587C55.131 51.4018 55.6874 51.4018 56.0306 51.0587C56.3739 50.7154 56.3739 50.1589 56.0306 49.8157L52.4534 46.2386C52.4528 46.238 52.4523 46.2374 52.4518 46.2368L49.9659 43.7509C49.9652 43.7502 49.9645 43.7497 49.9638 43.749L47.77 41.5552C47.4711 41.2562 47.0739 41.0916 46.6512 41.0916C46.2285 41.0916 45.8312 41.2562 45.5325 41.5549L45.4082 41.6794L42.2632 38.5336C44.5111 35.7251 46.1346 32.3968 46.9226 28.7604H53.1154C53.6009 28.7604 53.9943 28.367 53.9943 27.8815C53.9943 27.396 53.6009 27.0026 53.1154 27.0026H47.2342C47.3116 26.4436 47.3695 25.8785 47.4071 25.3079H57.3047C57.7902 25.3079 58.1836 24.9145 58.1836 24.429C58.1836 23.9435 57.7902 23.5501 57.3047 23.5501H47.4591C47.4548 22.9814 47.4313 22.4163 47.3882 21.8554H53.1155C53.601 21.8554 53.9944 21.462 53.9944 20.9764C53.9944 20.4909 53.601 20.0975 53.1155 20.0975H47.1874C46.5734 16.057 44.9312 12.2775 42.3471 9.01289C42.0458 8.63238 41.4932 8.56816 41.1124 8.86922C40.7319 9.17051 40.6676 9.72328 40.9688 10.1039C44.066 14.0167 45.7031 18.7287 45.7031 23.7305C45.7031 35.8462 35.8462 45.7031 23.7305 45.7031C11.6147 45.7031 1.75781 35.8462 1.75781 23.7305C1.75781 11.6147 11.6147 1.75781 23.7305 1.75781C29.2076 1.75781 34.4544 3.78492 38.5042 7.46566C38.8632 7.79238 39.4194 7.76566 39.7457 7.40648C40.0721 7.0473 40.0457 6.49137 39.6864 6.16488C35.3125 2.18941 29.6459 0 23.7305 0C10.6454 0 0 10.6454 0 23.7305C0 35.283 8.29852 44.9321 19.2472 47.0343V52.9638C19.2472 53.4493 19.6406 53.8427 20.1261 53.8427C20.6116 53.8427 21.005 53.4493 21.005 52.9638V47.3036C21.5644 47.3678 22.1295 47.4128 22.6998 47.4373V57.097C22.6998 57.5825 23.0932 57.9759 23.5787 57.9759C24.0642 57.9759 24.4576 57.5825 24.4576 57.097V47.4487C25.0276 47.4315 25.5929 47.3952 26.1524 47.3382V52.9638C26.1524 53.4493 26.5458 53.8427 27.0313 53.8427C27.5168 53.8427 27.9102 53.4493 27.9102 52.9638V47.0923C31.8785 46.3842 35.5075 44.6855 38.5337 42.2632L41.6795 45.4083L41.5553 45.5325C41.2563 45.8313 41.0917 46.2286 41.0917 46.6513C41.0917 47.074 41.2563 47.4712 41.555 47.77L43.7497 49.9645C43.7502 49.965 43.7505 49.9655 43.751 49.9659L46.2369 52.4518C46.2374 52.4523 46.2381 52.4528 46.2386 52.4534L53.3217 59.5364C53.6205 59.8355 54.0178 60 54.4405 60C54.8632 60 55.2603 59.8355 55.5593 59.5366L59.5366 55.5593C59.8355 55.2603 60 54.8632 60 54.4405C60 54.0178 59.8355 53.6205 59.5366 53.322ZM41.1118 39.8681L44.165 42.922L42.9221 44.1649L39.8682 41.1117C40.2979 40.7127 40.7127 40.2979 41.1118 39.8681ZM46.8585 50.5873L45.6155 49.3444L49.3443 45.6156L50.5872 46.8586L46.8585 50.5873ZM46.6513 42.9224L48.1014 44.3725L44.3726 48.1012L42.9225 46.6512L46.6513 42.9224Z" fill="#16285E"/>
<path d="M11.4911 39.8194C15.0113 42.4654 19.2401 43.8921 23.7306 43.9453C34.8771 43.9453 43.9455 34.877 43.9455 23.7305C43.9455 12.5839 34.8771 3.51562 23.7306 3.51562C18.3514 3.51562 13.2918 5.62113 9.48425 9.44426C5.69276 13.2511 3.57319 18.3214 3.51577 23.7211C3.46304 28.6921 5.26925 33.47 8.60159 37.1748C8.9262 37.5356 9.4819 37.5652 9.84284 37.2405C10.2038 36.9159 10.2332 36.3601 9.90858 35.9993C6.87155 32.6229 5.22542 28.269 5.27358 23.7398C5.32597 18.8012 7.26366 14.1648 10.7297 10.6848C14.205 7.1952 18.8221 5.27344 23.7306 5.27344C33.9079 5.27344 42.1876 13.5532 42.1876 23.7305C42.1876 33.9077 33.9079 42.1875 23.741 42.1876C19.6373 42.1389 15.7666 40.834 12.5472 38.4143C12.1594 38.1224 11.6082 38.2008 11.3166 38.5888C11.0248 38.9768 11.103 39.5278 11.4911 39.8194Z" fill="#16285E"/>
<path d="M27.0699 8.02734H20.9761C20.233 8.02734 19.6285 8.63191 19.6285 9.375V12.4805H13.9449C13.2018 12.4805 12.5972 13.085 12.5972 13.8281V23.2617H11.4209C10.9354 23.2617 10.542 23.6551 10.542 24.1406C10.542 24.6261 10.9354 25.0195 11.4209 25.0195H36.6251C37.1106 25.0195 37.504 24.6261 37.504 24.1406C37.504 23.6551 37.1106 23.2617 36.6251 23.2617H35.4488V18.2812C35.4488 17.5382 34.8442 16.9336 34.1011 16.9336H28.4175V9.375C28.4175 8.63191 27.813 8.02734 27.0699 8.02734ZM14.355 14.2383H19.6285V23.2617H14.355V14.2383ZM21.3863 9.78516H26.6597V23.2617H21.3863V9.78516ZM33.691 18.6914V23.2617H28.4175V18.6914H33.691Z" fill="#16285E"/>
<path d="M33.8669 32.4668H29.7291L27.8495 27.6618C27.7166 27.3223 27.391 27.1026 27.0232 27.103C26.6585 27.1063 26.3336 27.3345 26.2068 27.6764L23.6381 34.6033L21.8428 29.5146C21.7279 29.1888 21.4328 28.9606 21.0886 28.9313C20.7447 28.9015 20.415 29.0771 20.2464 29.3785L18.5224 32.4667H14.3955C13.91 32.4667 13.5166 32.8601 13.5166 33.3456C13.5166 33.8311 13.91 34.2245 14.3955 34.2245H19.0382C19.3568 34.2245 19.6504 34.0521 19.8057 33.774L20.8326 31.9348L22.7886 37.4789C22.9118 37.828 23.2402 38.0624 23.6104 38.0655H23.6176C23.9847 38.0655 24.3137 37.8369 24.4415 37.4921L27.0528 30.4505L28.3106 33.6659C28.4424 34.0028 28.7671 34.2246 29.129 34.2246H33.8669C34.3524 34.2246 34.7458 33.8312 34.7458 33.3457C34.7458 32.8602 34.3524 32.4668 33.8669 32.4668Z" fill="#16285E"/>
</svg>
