<svg width="15" height="24" viewBox="0 0 15 24" fill="none" xmlns="http://www.w3.org/2000/svg">
<path d="M9.97916 3.15137H4.56451C4.13756 3.15137 3.79102 3.4971 3.79102 3.92486V11.6601C3.79102 12.0879 4.13756 12.4336 4.56451 12.4336H9.97916C12.5388 12.4336 14.6203 10.3521 14.6203 7.79244C14.6203 5.23282 12.5388 3.15137 9.97916 3.15137ZM9.97916 10.8866H5.33801V4.69836H9.97916C11.6856 4.69836 13.0732 6.08609 13.0732 7.79244C13.0732 9.49879 11.6856 10.8866 9.97916 10.8866Z" fill="black"/>
<path d="M9.97916 10.8862H4.56451C4.13756 10.8862 3.79102 11.232 3.79102 11.6597V19.395C3.79102 19.8227 4.13756 20.1685 4.56451 20.1685H9.97916C12.5388 20.1685 14.6203 18.0869 14.6203 15.5273C14.6203 12.9678 12.5388 10.8862 9.97916 10.8862ZM9.97916 18.6215H5.33801V12.4332H9.97916C11.6856 12.4332 13.0732 13.8209 13.0732 15.5273C13.0732 17.2338 11.6856 18.6215 9.97916 18.6215Z" fill="black"/>
<path d="M4.56484 3.15137H1.47076C1.04381 3.15137 0.697266 3.4971 0.697266 3.92487C0.697266 4.35263 1.04381 4.69836 1.47076 4.69836H4.56484C4.99179 4.69836 5.33833 4.35263 5.33833 3.92487C5.33833 3.4971 4.99179 3.15137 4.56484 3.15137Z" fill="black"/>
<path d="M4.56451 0.0581055C4.13756 0.0581055 3.79102 0.403836 3.79102 0.831602V3.92577C3.79102 4.35354 4.13756 4.69927 4.56451 4.69927C4.99146 4.69927 5.33801 4.35354 5.33801 3.92577V0.831693C5.33801 0.403927 4.99146 0.0581055 4.56451 0.0581055Z" fill="black"/>
<path d="M9.20611 0.0581055C8.77916 0.0581055 8.43262 0.403836 8.43262 0.831602V3.92577C8.43262 4.35354 8.77916 4.69927 9.20611 4.69927C9.63307 4.69927 9.97962 4.35354 9.97962 3.92577V0.831693C9.97962 0.403927 9.63307 0.0581055 9.20611 0.0581055Z" fill="black"/>
<path d="M4.56451 18.6201C4.13756 18.6201 3.79102 18.9658 3.79102 19.3936V22.4878C3.79102 22.9155 4.13756 23.2613 4.56451 23.2613C4.99146 23.2613 5.33801 22.9155 5.33801 22.4878V19.3937C5.33801 18.9659 4.99146 18.6201 4.56451 18.6201Z" fill="black"/>
<path d="M9.20611 18.6201C8.77916 18.6201 8.43262 18.9658 8.43262 19.3936V22.4878C8.43262 22.9155 8.77916 23.2613 9.20611 23.2613C9.63307 23.2613 9.97962 22.9155 9.97962 22.4878V19.3937C9.97962 18.9659 9.63307 18.6201 9.20611 18.6201Z" fill="black"/>
<path d="M4.56484 18.6201H1.47076C1.04381 18.6201 0.697266 18.9658 0.697266 19.3936C0.697266 19.8214 1.04381 20.1671 1.47076 20.1671H4.56484C4.99179 20.1671 5.33833 19.8214 5.33833 19.3936C5.33833 18.9659 4.99179 18.6201 4.56484 18.6201Z" fill="black"/>
</svg>
