<svg width="18" height="18" viewBox="0 0 18 18" fill="none" xmlns="http://www.w3.org/2000/svg">
<g clip-path="url(#clip0)">
<mask id="path-1-inside-1" fill="white">
<path d="M8.46968 2.65431C11.8724 2.65431 14.6407 5.4226 14.6407 8.82529C14.6407 9.91788 14.3542 10.9876 13.8123 11.9189C13.7457 12.0335 13.7845 12.1803 13.899 12.247C14.0135 12.3136 14.1604 12.2748 14.227 12.1603C14.8115 11.1558 15.1205 10.0026 15.1205 8.82529C15.1205 5.15801 12.1369 2.17445 8.46965 2.17445C4.80237 2.17445 1.81885 5.15801 1.81885 8.82529C1.81885 10.3268 2.33565 11.7999 3.27401 12.973C3.32139 13.0323 3.39116 13.0631 3.46154 13.0631C3.5141 13.0631 3.56701 13.0459 3.61125 13.0105C3.71474 12.9278 3.73154 12.7768 3.64875 12.6733C2.76553 11.5691 2.2987 10.2385 2.2987 8.82529C2.2987 5.4226 5.06699 2.65431 8.46968 2.65431Z"/>
</mask>
<path d="M8.46968 2.65431C11.8724 2.65431 14.6407 5.4226 14.6407 8.82529C14.6407 9.91788 14.3542 10.9876 13.8123 11.9189C13.7457 12.0335 13.7845 12.1803 13.899 12.247C14.0135 12.3136 14.1604 12.2748 14.227 12.1603C14.8115 11.1558 15.1205 10.0026 15.1205 8.82529C15.1205 5.15801 12.1369 2.17445 8.46965 2.17445C4.80237 2.17445 1.81885 5.15801 1.81885 8.82529C1.81885 10.3268 2.33565 11.7999 3.27401 12.973C3.32139 13.0323 3.39116 13.0631 3.46154 13.0631C3.5141 13.0631 3.56701 13.0459 3.61125 13.0105C3.71474 12.9278 3.73154 12.7768 3.64875 12.6733C2.76553 11.5691 2.2987 10.2385 2.2987 8.82529C2.2987 5.4226 5.06699 2.65431 8.46968 2.65431Z" fill="#F5F7FB"/>
<path d="M13.8123 11.9189L7.22086 8.08342L7.22073 8.08365L13.8123 11.9189ZM14.227 12.1603L7.63555 8.32481L7.63544 8.32498L14.227 12.1603ZM3.27401 12.973L9.22999 8.21018L9.22941 8.20946L3.27401 12.973ZM3.61125 13.0105L-1.15165 7.05459L-1.15173 7.05465L3.61125 13.0105ZM3.64875 12.6733L-2.30661 17.4369L-2.30629 17.4373L3.64875 12.6733ZM8.46968 10.2805C7.66056 10.2805 7.0145 9.63442 7.0145 8.82529H22.2668C22.2668 1.21078 16.0842 -4.97186 8.46968 -4.97186V10.2805ZM7.0145 8.82529C7.0145 8.59023 7.07518 8.33377 7.22086 8.08342L20.4038 15.7544C21.6333 13.6415 22.2668 11.2455 22.2668 8.82529H7.0145ZM7.22073 8.08365C5.03646 11.8377 6.30785 16.6532 10.0637 18.8385L17.7343 5.65536C21.2611 7.70742 22.4549 12.2292 20.4039 15.7542L7.22073 8.08365ZM10.0637 18.8385C13.8177 21.0228 18.6332 19.7515 20.8186 15.9955L7.63544 8.32498C9.68757 4.79805 14.2094 3.60442 17.7343 5.65536L10.0637 18.8385ZM20.8185 15.9957C22.0899 13.8109 22.7467 11.3317 22.7467 8.82529H7.49432C7.49432 8.67345 7.53321 8.50069 7.63555 8.32481L20.8185 15.9957ZM22.7467 8.82529C22.7467 0.946194 16.3487 -5.45171 8.46965 -5.45171V9.80062C7.92512 9.80062 7.49432 9.36983 7.49432 8.82529H22.7467ZM8.46965 -5.45171C0.590507 -5.45171 -5.80732 0.946242 -5.80732 8.82529H9.44502C9.44502 9.36978 9.01424 9.80062 8.46965 9.80062V-5.45171ZM-5.80732 8.82529C-5.80732 12.0593 -4.70072 15.212 -2.68139 17.7366L9.22941 8.20946C9.37202 8.38774 9.44502 8.59443 9.44502 8.82529H-5.80732ZM-2.68196 17.7359C-1.12463 19.6833 1.1763 20.6893 3.46154 20.6893V5.43691C5.60602 5.43691 7.76741 6.38121 9.22999 8.21018L-2.68196 17.7359ZM3.46154 20.6893C5.18225 20.6893 6.92949 20.1218 8.37423 18.9664L-1.15173 7.05465C0.20453 5.97003 1.84595 5.43691 3.46154 5.43691V20.6893ZM8.37416 18.9665C11.7676 16.2527 12.3179 11.3019 9.60378 7.90925L-2.30629 17.4373C-4.85482 14.2516 -4.33814 9.60279 -1.15165 7.05459L8.37416 18.9665ZM9.6041 7.90965C9.69029 8.0174 9.77654 8.16344 9.83864 8.34046C9.90076 8.5175 9.92487 8.68605 9.92487 8.82529H-5.32747C-5.32747 11.971 -4.2708 14.9813 -2.30661 17.4369L9.6041 7.90965ZM9.92487 8.82529C9.92487 9.63442 9.27881 10.2805 8.46968 10.2805V-4.97186C0.855178 -4.97186 -5.32747 1.21078 -5.32747 8.82529H9.92487Z" fill="white" mask="url(#path-1-inside-1)"/>
<mask id="path-3-inside-2" fill="white">
<path d="M16.6592 8.8249C16.6592 4.30921 12.9854 0.635437 8.46974 0.635437C3.95405 0.635437 0.280273 4.30921 0.280273 8.8249C0.280273 13.3406 3.95405 17.0144 8.46974 17.0144C8.60224 17.0144 8.70966 16.9069 8.70966 16.7744V15.2358C8.70966 15.1033 8.60224 14.9959 8.46974 14.9959C6.98034 14.9959 5.54117 14.4558 4.41726 13.475C4.31746 13.3879 4.16592 13.3982 4.07875 13.498C3.9916 13.5979 4.00194 13.7495 4.10178 13.8366C5.25262 14.8408 6.71038 15.4164 8.22981 15.4714V16.5308C4.08914 16.4038 0.760125 12.9958 0.760125 8.8249C0.760125 4.5738 4.21864 1.11529 8.46974 1.11529C12.7208 1.11529 16.1794 4.5738 16.1794 8.8249C16.1794 9.74526 16.0206 10.643 15.7073 11.4933C15.3953 12.3403 14.937 13.1216 14.3452 13.8155C14.2626 13.9123 14.27 14.0568 14.3621 14.1447L14.7313 14.4972L12.5074 14.9656L12.8721 12.7223L13.2475 13.0807C13.3433 13.1722 13.4952 13.1687 13.5867 13.0728C13.6782 12.977 13.6747 12.8251 13.5788 12.7336L12.874 12.0608C12.8096 11.9993 12.7165 11.9785 12.6321 12.0068C12.5476 12.0351 12.4859 12.1079 12.4716 12.1958L11.9777 15.234C11.965 15.312 11.9916 15.3914 12.0488 15.446C12.1061 15.5006 12.1865 15.5236 12.2639 15.5072L15.2759 14.8729C15.363 14.8546 15.4328 14.7895 15.4572 14.7038C15.4816 14.6182 15.4565 14.5261 15.3921 14.4646L14.8553 13.9521C15.4143 13.2593 15.8519 12.489 16.1576 11.6592C16.4905 10.7556 16.6592 9.80204 16.6592 8.8249Z"/>
</mask>
<path d="M16.6592 8.8249C16.6592 4.30921 12.9854 0.635437 8.46974 0.635437C3.95405 0.635437 0.280273 4.30921 0.280273 8.8249C0.280273 13.3406 3.95405 17.0144 8.46974 17.0144C8.60224 17.0144 8.70966 16.9069 8.70966 16.7744V15.2358C8.70966 15.1033 8.60224 14.9959 8.46974 14.9959C6.98034 14.9959 5.54117 14.4558 4.41726 13.475C4.31746 13.3879 4.16592 13.3982 4.07875 13.498C3.9916 13.5979 4.00194 13.7495 4.10178 13.8366C5.25262 14.8408 6.71038 15.4164 8.22981 15.4714V16.5308C4.08914 16.4038 0.760125 12.9958 0.760125 8.8249C0.760125 4.5738 4.21864 1.11529 8.46974 1.11529C12.7208 1.11529 16.1794 4.5738 16.1794 8.8249C16.1794 9.74526 16.0206 10.643 15.7073 11.4933C15.3953 12.3403 14.937 13.1216 14.3452 13.8155C14.2626 13.9123 14.27 14.0568 14.3621 14.1447L14.7313 14.4972L12.5074 14.9656L12.8721 12.7223L13.2475 13.0807C13.3433 13.1722 13.4952 13.1687 13.5867 13.0728C13.6782 12.977 13.6747 12.8251 13.5788 12.7336L12.874 12.0608C12.8096 11.9993 12.7165 11.9785 12.6321 12.0068C12.5476 12.0351 12.4859 12.1079 12.4716 12.1958L11.9777 15.234C11.965 15.312 11.9916 15.3914 12.0488 15.446C12.1061 15.5006 12.1865 15.5236 12.2639 15.5072L15.2759 14.8729C15.363 14.8546 15.4328 14.7895 15.4572 14.7038C15.4816 14.6182 15.4565 14.5261 15.3921 14.4646L14.8553 13.9521C15.4143 13.2593 15.8519 12.489 16.1576 11.6592C16.4905 10.7556 16.6592 9.80204 16.6592 8.8249Z" fill="#F5F7FB"/>
<path d="M4.41726 13.475L-0.597297 19.2207L-0.596875 19.221L4.41726 13.475ZM4.07875 13.498L-1.66668 8.48322L-1.6668 8.48335L4.07875 13.498ZM4.10178 13.8366L9.11594 8.09056L9.11543 8.09011L4.10178 13.8366ZM8.22981 15.4714H15.856V8.11608L8.50548 7.8502L8.22981 15.4714ZM8.22981 16.5308L7.99596 24.1534L15.856 24.3945V16.5308H8.22981ZM15.7073 11.4933L8.55129 8.85707L8.55114 8.85747L15.7073 11.4933ZM14.3452 13.8155L20.1464 18.7657L20.1476 18.7642L14.3452 13.8155ZM14.3621 14.1447L9.09555 19.6603L9.09595 19.6607L14.3621 14.1447ZM14.7313 14.4972L16.3028 21.9597L30.4674 18.9768L19.9974 8.98119L14.7313 14.4972ZM12.5074 14.9656L4.98005 13.7418L3.19531 24.72L14.0789 22.428L12.5074 14.9656ZM12.8721 12.7223L18.1381 7.20622L7.6676 -2.78962L5.34474 11.4986L12.8721 12.7223ZM13.2475 13.0807L7.98146 18.5968L7.9826 18.5979L13.2475 13.0807ZM13.5867 13.0728L19.1021 18.3397L19.103 18.3387L13.5867 13.0728ZM13.5788 12.7336L18.8457 7.21827L18.8448 7.21748L13.5788 12.7336ZM12.874 12.0608L18.14 6.54464L18.1391 6.54371L12.874 12.0608ZM12.6321 12.0068L15.0568 19.2373L15.0593 19.2364L12.6321 12.0068ZM12.4716 12.1958L4.94434 10.9714L4.94422 10.9721L12.4716 12.1958ZM11.9777 15.234L19.5049 16.4582L19.505 16.4576L11.9777 15.234ZM12.0488 15.446L17.315 9.93005L17.3134 9.92851L12.0488 15.446ZM12.2639 15.5072L10.6924 8.04473L10.6877 8.04571L12.2639 15.5072ZM15.2759 14.8729L13.7061 7.41007L13.7043 7.41043L15.2759 14.8729ZM15.4572 14.7038L8.1224 12.616L8.12219 12.6167L15.4572 14.7038ZM15.3921 14.4646L10.1259 19.9806L10.1271 19.9816L15.3921 14.4646ZM14.8553 13.9521L8.92035 9.16303L4.51441 14.6232L9.58912 19.4681L14.8553 13.9521ZM16.1576 11.6592L9.00158 9.02291L9.00144 9.02329L16.1576 11.6592ZM24.2854 8.8249C24.2854 0.0973953 17.1972 -6.99073 8.46974 -6.99073V8.26161C8.77361 8.26161 9.03303 8.52103 9.03303 8.8249H24.2854ZM8.46974 -6.99073C-0.257768 -6.99073 -7.34589 0.0973953 -7.34589 8.8249H7.90644C7.90644 8.52103 8.16586 8.26161 8.46974 8.26161V-6.99073ZM-7.34589 8.8249C-7.34589 17.5524 -0.257768 24.6405 8.46974 24.6405V9.3882C8.16586 9.3882 7.90644 9.12877 7.90644 8.8249H-7.34589ZM8.46974 24.6405C12.8141 24.6405 16.3358 21.1188 16.3358 16.7744H1.0835C1.0835 12.6951 4.39042 9.3882 8.46974 9.3882V24.6405ZM16.3358 16.7744V15.2358H1.0835V16.7744H16.3358ZM16.3358 15.2358C16.3358 10.8915 12.8141 7.36972 8.46974 7.36972V22.6221C4.39042 22.6221 1.0835 19.3151 1.0835 15.2358H16.3358ZM8.46974 7.36972C8.82718 7.36972 9.16851 7.49958 9.4314 7.72898L-0.596875 19.221C1.91383 21.412 5.13351 22.6221 8.46974 22.6221V7.36972ZM9.43183 7.72935C6.15852 4.87255 1.1897 5.2107 -1.66668 8.48322L9.82417 18.5129C7.14214 21.5856 2.47639 21.9033 -0.597297 19.2207L9.43183 7.72935ZM-1.6668 8.48335C-4.52448 11.7575 -4.18506 16.7272 -0.911871 19.583L9.11543 8.09011C12.1889 10.7717 12.5077 15.4383 9.82429 18.5127L-1.6668 8.48335ZM-0.912384 19.5826C1.55628 21.7368 4.68702 22.9744 7.95415 23.0926L8.50548 7.8502C8.73374 7.85846 8.94896 7.94485 9.11594 8.09056L-0.912384 19.5826ZM0.603644 15.4714V16.5308H15.856V15.4714H0.603644ZM8.46367 8.90822C8.45388 8.90792 8.44999 8.90693 8.44981 8.90689C8.44923 8.90676 8.44809 8.90647 8.44572 8.90541C8.43977 8.90273 8.42643 8.89505 8.41172 8.8799C8.39714 8.8649 8.39065 8.85231 8.38877 8.84778C8.38805 8.84603 8.3878 8.84508 8.38759 8.84404C8.38746 8.84341 8.38629 8.83782 8.38629 8.8249H-6.86604C-6.86604 17.1301 -0.250021 23.9004 7.99596 24.1534L8.46367 8.90822ZM8.38629 8.8249C8.38629 8.81183 8.3875 8.80628 8.3876 8.80579C8.38779 8.80484 8.38804 8.80386 8.38885 8.80193C8.39098 8.79691 8.39803 8.78371 8.41328 8.76845C8.42854 8.75319 8.44175 8.74615 8.44677 8.74402C8.4487 8.7432 8.44967 8.74296 8.45062 8.74276C8.45112 8.74266 8.45666 8.74146 8.46974 8.74146V-6.51088C0.00682169 -6.51088 -6.86604 0.361985 -6.86604 8.8249H8.38629ZM8.46974 8.74146C8.48281 8.74146 8.48836 8.74266 8.48885 8.74276C8.4898 8.74296 8.49078 8.7432 8.49271 8.74402C8.49773 8.74615 8.51093 8.75319 8.52619 8.76845C8.54145 8.78371 8.54849 8.79691 8.55062 8.80193C8.55144 8.80386 8.55168 8.80484 8.55188 8.80579C8.55198 8.80628 8.55318 8.81183 8.55318 8.8249H23.8055C23.8055 0.361985 16.9327 -6.51088 8.46974 -6.51088V8.74146ZM8.55318 8.8249C8.55318 8.84556 8.55149 8.85546 8.55122 8.85697C8.55102 8.85808 8.55095 8.85825 8.55108 8.85777C8.55121 8.85729 8.55132 8.85697 8.55129 8.85707L22.8633 14.1296C23.4925 12.4216 23.8055 10.6303 23.8055 8.8249H8.55318ZM8.55114 8.85747C8.55109 8.8576 8.55134 8.85692 8.55189 8.85575C8.55245 8.85458 8.55295 8.85366 8.55322 8.8532C8.55349 8.85274 8.55312 8.85344 8.55174 8.85537C8.55036 8.85731 8.54755 8.86109 8.5428 8.86665L20.1476 18.7642C21.3172 17.3929 22.2369 15.8303 22.8635 14.1292L8.55114 8.85747ZM8.54404 8.8652C5.83338 12.0418 6.0786 16.7797 9.09555 19.6603L19.6286 8.62905C22.4614 11.3339 22.6918 15.7828 20.1464 18.7657L8.54404 8.8652ZM9.09595 19.6607L9.46522 20.0133L19.9974 8.98119L19.6282 8.62866L9.09595 19.6607ZM13.1598 7.03474L10.9359 7.50307L14.0789 22.428L16.3028 21.9597L13.1598 7.03474ZM20.0347 16.1893L20.3994 13.9461L5.34474 11.4986L4.98005 13.7418L20.0347 16.1893ZM7.60606 18.2384L7.98146 18.5968L18.5135 7.5646L18.1381 7.20622L7.60606 18.2384ZM7.9826 18.5979C11.1237 21.5954 16.1015 21.4818 19.1021 18.3397L8.07137 7.80601C10.8889 4.85555 15.5629 4.74895 18.5124 7.56352L7.9826 18.5979ZM19.103 18.3387C22.1029 15.1962 21.9867 10.2177 18.8457 7.21827L8.31202 18.249C5.36272 15.4326 5.25355 10.7578 8.07045 7.80698L19.103 18.3387ZM18.8448 7.21748L18.14 6.54464L7.60804 17.5769L8.31284 18.2497L18.8448 7.21748ZM18.1391 6.54371C16.0301 4.53109 12.9765 3.84669 10.2049 4.77723L15.0593 19.2364C12.4565 20.1103 9.58911 19.4675 7.60901 17.5778L18.1391 6.54371ZM10.2073 4.77641C7.43748 5.70528 5.41278 8.09156 4.94434 10.9714L19.9988 13.4202C19.559 16.1242 17.6578 18.365 15.0568 19.2373L10.2073 4.77641ZM4.94422 10.9721L4.45032 14.0103L19.505 16.4576L19.9989 13.4195L4.94422 10.9721ZM4.45041 14.0097C4.03406 16.5697 4.90635 19.1717 6.78424 20.9635L17.3134 9.92851C19.0768 11.6111 19.8959 14.0544 19.5049 16.4582L4.45041 14.0097ZM6.78262 20.9619C8.65688 22.7513 11.2965 23.5061 13.8401 22.9687L10.6877 8.04571C13.0766 7.54107 15.5552 8.24993 17.315 9.93005L6.78262 20.9619ZM13.8355 22.9697L16.8474 22.3354L13.7043 7.41043L10.6924 8.04473L13.8355 22.9697ZM16.8457 22.3358C19.7045 21.7344 21.9933 19.5988 22.7922 16.7909L8.12219 12.6167C8.87239 9.98018 11.0216 7.97475 13.7061 7.41007L16.8457 22.3358ZM22.792 16.7916C23.5911 13.9842 22.7701 10.964 20.6571 8.94754L10.1271 19.9816C8.14299 18.0882 7.37202 15.2522 8.1224 12.616L22.792 16.7916ZM20.6583 8.94862L20.1214 8.43611L9.58912 19.4681L10.1259 19.9806L20.6583 8.94862ZM20.7902 18.7411C21.8667 17.4071 22.7187 15.9105 23.3138 14.295L9.00144 9.02329C8.98514 9.06754 8.96186 9.11159 8.92035 9.16303L20.7902 18.7411ZM23.3136 14.2954C23.9622 12.535 24.2854 10.6879 24.2854 8.8249H9.03303C9.03303 8.91616 9.01875 8.9763 9.00158 9.02291L23.3136 14.2954Z" fill="white" mask="url(#path-3-inside-2)"/>
<mask id="path-5-inside-3" fill="white">
<path d="M9.27066 8.56214C9.07187 8.49186 8.89244 8.42555 8.7298 8.36205V5.83016C9.28214 5.87504 9.61743 6.16829 9.63825 6.18704C9.73566 6.27613 9.88688 6.26973 9.97652 6.17264C10.0663 6.07523 10.0602 5.92344 9.96282 5.83361C9.93758 5.81032 9.47814 5.39637 8.7298 5.34839V4.72215C8.7298 4.58965 8.62238 4.48222 8.48987 4.48222C8.35737 4.48222 8.24995 4.58965 8.24995 4.72215V5.36953C8.13581 5.38652 8.01728 5.41221 7.89428 5.44925C7.32377 5.62113 6.89699 6.11173 6.78055 6.72969C6.67568 7.28622 6.84926 7.81921 7.23359 8.12065C7.48052 8.31432 7.7969 8.49157 8.24995 8.68447V11.755C7.73583 11.7462 7.45058 11.6785 6.93429 11.3408C6.82338 11.2682 6.67469 11.2993 6.60217 11.4102C6.52962 11.5211 6.56071 11.6698 6.67159 11.7423C7.28397 12.143 7.66299 12.2245 8.24995 12.2346V12.9281C8.24995 13.0606 8.35737 13.168 8.48987 13.168C8.62238 13.168 8.7298 13.0606 8.7298 12.9281V12.2205C9.15037 12.1714 9.53061 11.9994 9.83992 11.7152C10.1718 11.4103 10.3958 10.9971 10.4707 10.5517C10.6215 9.65409 10.1505 8.87315 9.27066 8.56214ZM7.52972 7.74304C7.28689 7.55257 7.18052 7.19831 7.25208 6.81849C7.31724 6.47271 7.55653 6.05211 8.03264 5.90866C8.10727 5.8862 8.17954 5.86928 8.24992 5.85623V8.16051C7.93814 8.01783 7.70967 7.88418 7.52972 7.74304ZM9.99741 10.4721C9.9039 11.0283 9.47152 11.6251 8.72977 11.737V8.87574C8.84909 8.92069 8.97564 8.96682 9.1107 9.01455C9.89833 9.29296 10.0852 9.95003 9.99741 10.4721Z"/>
</mask>
<path d="M9.27066 8.56214C9.07187 8.49186 8.89244 8.42555 8.7298 8.36205V5.83016C9.28214 5.87504 9.61743 6.16829 9.63825 6.18704C9.73566 6.27613 9.88688 6.26973 9.97652 6.17264C10.0663 6.07523 10.0602 5.92344 9.96282 5.83361C9.93758 5.81032 9.47814 5.39637 8.7298 5.34839V4.72215C8.7298 4.58965 8.62238 4.48222 8.48987 4.48222C8.35737 4.48222 8.24995 4.58965 8.24995 4.72215V5.36953C8.13581 5.38652 8.01728 5.41221 7.89428 5.44925C7.32377 5.62113 6.89699 6.11173 6.78055 6.72969C6.67568 7.28622 6.84926 7.81921 7.23359 8.12065C7.48052 8.31432 7.7969 8.49157 8.24995 8.68447V11.755C7.73583 11.7462 7.45058 11.6785 6.93429 11.3408C6.82338 11.2682 6.67469 11.2993 6.60217 11.4102C6.52962 11.5211 6.56071 11.6698 6.67159 11.7423C7.28397 12.143 7.66299 12.2245 8.24995 12.2346V12.9281C8.24995 13.0606 8.35737 13.168 8.48987 13.168C8.62238 13.168 8.7298 13.0606 8.7298 12.9281V12.2205C9.15037 12.1714 9.53061 11.9994 9.83992 11.7152C10.1718 11.4103 10.3958 10.9971 10.4707 10.5517C10.6215 9.65409 10.1505 8.87315 9.27066 8.56214ZM7.52972 7.74304C7.28689 7.55257 7.18052 7.19831 7.25208 6.81849C7.31724 6.47271 7.55653 6.05211 8.03264 5.90866C8.10727 5.8862 8.17954 5.86928 8.24992 5.85623V8.16051C7.93814 8.01783 7.70967 7.88418 7.52972 7.74304ZM9.99741 10.4721C9.9039 11.0283 9.47152 11.6251 8.72977 11.737V8.87574C8.84909 8.92069 8.97564 8.96682 9.1107 9.01455C9.89833 9.29296 10.0852 9.95003 9.99741 10.4721Z" fill="#F5F7FB"/>
<path d="M8.7298 8.36205H1.10363V13.5713L5.95615 15.4659L8.7298 8.36205ZM8.7298 5.83016L9.34745 -1.77096L1.10363 -2.44083V5.83016H8.7298ZM9.63825 6.18704L14.7852 0.559628L14.7628 0.539218L14.7404 0.518986L9.63825 6.18704ZM9.97652 6.17264L15.5798 11.3458L15.5828 11.3426L9.97652 6.17264ZM9.96282 5.83361L4.79133 11.4384L4.7929 11.4399L9.96282 5.83361ZM8.7298 5.34839H1.10363V12.5012L8.2418 12.9589L8.7298 5.34839ZM8.24995 5.36953L9.37253 12.9126L15.8761 11.9447V5.36953H8.24995ZM7.89428 5.44925L5.69508 -1.85294L5.69436 -1.85272L7.89428 5.44925ZM6.78055 6.72969L-0.71373 5.3175L-0.713746 5.31759L6.78055 6.72969ZM7.23359 8.12065L2.5271 14.1213L2.52723 14.1214L7.23359 8.12065ZM8.24995 8.68447H15.8761V3.64292L11.2375 1.66787L8.24995 8.68447ZM8.24995 11.755L8.12042 19.38L15.8761 19.5118V11.755H8.24995ZM6.93429 11.3408L11.1093 4.95891L11.1079 4.958L6.93429 11.3408ZM6.60217 11.4102L12.9835 15.5859L12.9849 15.5838L6.60217 11.4102ZM6.67159 11.7423L10.8465 5.36045L10.846 5.36012L6.67159 11.7423ZM8.24995 12.2346H15.8761V4.73868L8.38127 4.6096L8.24995 12.2346ZM8.7298 12.2205L7.84483 4.64585L1.10363 5.43345V12.2205H8.7298ZM9.83992 11.7152L14.9993 17.3311L14.9997 17.3308L9.83992 11.7152ZM10.4707 10.5517L17.9913 11.8163L17.9914 11.8157L10.4707 10.5517ZM7.25208 6.81849L-0.24217 5.40617L-0.242229 5.40648L7.25208 6.81849ZM8.03264 5.90866L5.83525 -1.39407L5.83268 -1.3933L8.03264 5.90866ZM8.24992 5.85623H15.8761V-3.31428L6.85932 -1.64208L8.24992 5.85623ZM8.24992 8.16051L5.0765 15.0951L15.8761 20.0372V8.16051H8.24992ZM8.72977 11.737H1.1036V20.6004L9.8677 19.2778L8.72977 11.737ZM8.72977 8.87574L11.418 1.73908L1.1036 -2.14609V8.87574H8.72977ZM9.1107 9.01455L11.6523 1.82436L11.6517 1.82415L9.1107 9.01455ZM11.8127 1.37213C11.6737 1.32297 11.5735 1.2855 11.5034 1.25815L5.95615 15.4659C6.21138 15.5656 6.47006 15.6608 6.72858 15.7522L11.8127 1.37213ZM16.356 8.36205V5.83016H1.10363V8.36205H16.356ZM8.11215 13.4313C7.16702 13.3545 6.4007 13.0645 5.8505 12.7769C5.3124 12.4956 4.88139 12.1659 4.53614 11.8551L14.7404 0.518986C14.1379 -0.023313 12.276 -1.53299 9.34745 -1.77096L8.11215 13.4313ZM4.49134 11.8145C7.68879 14.7389 12.6447 14.5249 15.5798 11.3458L4.37321 0.999506C7.12901 -1.98546 11.7825 -2.18661 14.7852 0.559628L4.49134 11.8145ZM15.5828 11.3426C18.5265 8.15045 18.328 3.17386 15.1327 0.227338L4.7929 11.4399C1.7925 8.67302 1.60623 4.00002 4.37024 1.00272L15.5828 11.3426ZM15.1343 0.228789C14.5655 -0.296015 12.5051 -2.05136 9.2178 -2.26215L8.2418 12.9589C7.30656 12.899 6.55831 12.6106 6.03945 12.335C5.53197 12.0653 5.12503 11.7463 4.79133 11.4384L15.1343 0.228789ZM16.356 5.34839V4.72215H1.10363V5.34839H16.356ZM16.356 4.72215C16.356 0.377824 12.8342 -3.14394 8.48987 -3.14394V12.1084C4.41057 12.1084 1.10363 8.80147 1.10363 4.72215H16.356ZM8.48987 -3.14394C4.14558 -3.14394 0.623779 0.377809 0.623779 4.72215H15.8761C15.8761 8.80148 12.5692 12.1084 8.48987 12.1084V-3.14394ZM0.623779 4.72215V5.36953H15.8761V4.72215H0.623779ZM7.12736 -2.17356C6.66326 -2.10449 6.18421 -2.00025 5.69508 -1.85294L10.0935 12.7514C9.85036 12.8247 9.60835 12.8775 9.37253 12.9126L7.12736 -2.17356ZM5.69436 -1.85272C2.21479 -0.804399 -0.106545 2.09525 -0.71373 5.3175L14.2748 8.14187C13.9005 10.1282 12.4328 12.0467 10.0942 12.7512L5.69436 -1.85272ZM-0.713746 5.31759C-1.24329 8.128 -0.501531 11.7458 2.5271 14.1213L11.9401 2.12003C14.2001 3.89261 14.5947 6.44444 14.2748 8.14179L-0.713746 5.31759ZM2.52723 14.1214C3.49139 14.8776 4.46758 15.3627 5.26236 15.7011L11.2375 1.66787C11.1262 1.62047 11.4697 1.75108 11.9399 2.11993L2.52723 14.1214ZM0.623779 8.68447V11.755H15.8761V8.68447H0.623779ZM8.37948 4.12991C8.41581 4.13053 9.0175 4.13587 9.79123 4.3688C10.5548 4.59867 11.0403 4.91379 11.1093 4.95891L2.75933 17.7226C3.34459 18.1055 4.23079 18.6234 5.39464 18.9737C6.5686 19.3271 7.56997 19.3707 8.12042 19.38L8.37948 4.12991ZM11.1079 4.958C7.4745 2.58222 2.59865 3.59798 0.219396 7.23666L12.9849 15.5838C10.7507 19.0006 6.17226 19.9543 2.76073 17.7235L11.1079 4.958ZM0.220791 7.23452C-2.15827 10.8702 -1.139 15.7463 2.49718 18.1246L10.846 5.36012C14.2604 7.59339 15.2175 12.172 12.9835 15.5859L0.220791 7.23452ZM2.49667 18.1242C3.21043 18.5912 4.14703 19.1078 5.32475 19.4531C6.49934 19.7974 7.50624 19.8491 8.11862 19.8597L8.38127 4.6096C8.4067 4.61004 8.93061 4.6159 9.61586 4.8168C10.3042 5.01862 10.7451 5.29414 10.8465 5.36045L2.49667 18.1242ZM0.623779 12.2346V12.9281H15.8761V12.2346H0.623779ZM0.623779 12.9281C0.623779 17.2725 4.14558 20.7942 8.48987 20.7942V5.54188C12.5692 5.54188 15.8761 8.84878 15.8761 12.9281H0.623779ZM8.48987 20.7942C12.8342 20.7942 16.356 17.2724 16.356 12.9281H1.10363C1.10363 8.8488 4.41057 5.54188 8.48987 5.54188V20.7942ZM16.356 12.9281V12.2205H1.10363V12.9281H16.356ZM9.61477 19.7951C11.5977 19.5635 13.4827 18.7245 14.9993 17.3311L4.6805 6.09924C5.57853 5.27421 6.70306 4.77925 7.84483 4.64585L9.61477 19.7951ZM14.9997 17.3308C16.5833 15.8758 17.6358 13.9304 17.9913 11.8163L2.95008 9.28711C3.15578 8.06379 3.7603 6.94475 4.68012 6.09959L14.9997 17.3308ZM17.9914 11.8157C18.7792 7.12836 16.0529 2.87092 11.8122 1.37195L6.7291 15.7523C5.65397 15.3723 4.51019 14.5744 3.7269 13.2757C2.93723 11.9665 2.74238 10.5229 2.94999 9.28767L17.9914 11.8157ZM12.2363 1.74247C14.8338 3.77988 15.0438 6.65175 14.7464 8.2305L-0.242229 5.40648C-0.682807 7.74488 -0.260078 11.3253 2.82318 13.7436L12.2363 1.74247ZM14.7463 8.23081C14.4675 9.71021 13.3149 12.282 10.2326 13.2106L5.83268 -1.3933C1.79816 -0.177766 0.166956 3.23521 -0.24217 5.40617L14.7463 8.23081ZM10.23 13.2114C10.0136 13.2765 9.81443 13.3223 9.64051 13.3545L6.85932 -1.64208C6.54464 -1.58372 6.20099 -1.50412 5.83525 -1.39407L10.23 13.2114ZM0.623747 5.85623V8.16051H15.8761V5.85623H0.623747ZM11.4233 1.22596C11.4463 1.23648 11.7905 1.39281 12.2363 1.74248L2.82315 13.7436C3.62886 14.3755 4.42998 14.7992 5.0765 15.0951L11.4233 1.22596ZM2.47679 9.20772C2.81398 7.20208 4.43017 4.67335 7.59184 4.19624L9.8677 19.2778C14.5129 18.5769 16.9938 14.8545 17.518 11.7365L2.47679 9.20772ZM16.3559 11.737V8.87574H1.1036V11.737H16.3559ZM6.04156 16.0124C6.21451 16.0776 6.39041 16.1416 6.56971 16.2049L11.6517 1.82415C11.5609 1.79206 11.4837 1.76383 11.418 1.73908L6.04156 16.0124ZM6.56913 16.2047C5.23299 15.7324 3.88944 14.6941 3.08229 13.1042C2.35329 11.6682 2.29973 10.2607 2.4768 9.20762L17.518 11.7366C17.7829 10.1614 17.6798 8.16434 16.6824 6.19972C15.6068 4.0812 13.776 2.57506 11.6523 1.82436L6.56913 16.2047Z" fill="white" mask="url(#path-5-inside-3)"/>
</g>
<defs>
<clipPath id="clip0">
<rect width="17.1589" height="17.1589" fill="white" transform="translate(0.280273 0.635437)"/>
</clipPath>
</defs>
</svg>
