<svg width="15" height="17" viewBox="0 0 15 17" fill="none" xmlns="http://www.w3.org/2000/svg">
<g clip-path="url(#clip0)">
<path d="M14.3448 6.42537C14.5839 6.42537 14.7778 6.21768 14.7778 5.96151V4.10604C14.7778 3.91854 14.6724 3.74945 14.5108 3.67761L7.55482 0.58516C7.44858 0.537938 7.3292 0.537938 7.22296 0.58516L0.26701 3.67761C0.105349 3.74945 0 3.91854 0 4.10604V5.96151C0 6.21768 0.193843 6.42537 0.432943 6.42537H1.18338V11.6825H1.03906C0.799963 11.6825 0.60612 11.8902 0.60612 12.1464V13.538H0.432943C0.193843 13.538 0 13.7457 0 14.0019V15.9192C0 16.1754 0.193843 16.3831 0.432943 16.3831H14.3448C14.5839 16.3831 14.7778 16.1754 14.7778 15.9192V14.0019C14.7778 13.7457 14.5839 13.538 14.3448 13.538H14.1717V12.1464C14.1717 11.8902 13.9778 11.6825 13.7387 11.6825H13.5944V6.42537H14.3448ZM13.9119 14.4657V15.4553H0.865885V14.4657H13.9119ZM3.4924 12.6103V13.538H1.47201V12.6103H3.4924ZM2.04926 11.6825V6.42537H2.91515V11.6825H2.04926ZM3.92535 11.6825H3.78103V6.42537H10.9967V11.6825H10.8524C10.6133 11.6825 10.4195 11.8902 10.4195 12.1464V13.538H4.35829V12.1464C4.35829 11.8902 4.16445 11.6825 3.92535 11.6825ZM13.3058 12.6103V13.538H11.2854V12.6103H13.3058ZM11.8626 11.6825V6.42537H12.7285V11.6825H11.8626ZM0.865885 5.49764V4.41578L7.38889 1.5158L13.9119 4.41575V5.49764H0.865885Z" fill="white"/>
</g>
<defs>
<clipPath id="clip0">
<rect width="14.7778" height="15.8333" fill="white" transform="translate(0 0.549011)"/>
</clipPath>
</defs>
</svg>
