<svg width="21" height="22" viewBox="0 0 21 22" fill="none" xmlns="http://www.w3.org/2000/svg">
<path d="M20.5668 21.2559H19.6168V7.46096C19.6168 6.81887 19.0944 6.29651 18.4523 6.29651H16.3287C15.6866 6.29651 15.1643 6.81891 15.1643 7.46096V21.2559H12.7519V13.7111C12.7519 13.069 12.2295 12.5467 11.5874 12.5467H9.46386C8.82177 12.5467 8.29941 13.0691 8.29941 13.7111V21.2559H5.887V17.3485C5.887 16.7064 5.3646 16.184 4.72255 16.184H2.59893C1.95685 16.184 1.43449 16.7065 1.43449 17.3485V21.2559H0.43317C0.19393 21.2559 0 21.4498 0 21.689C0 21.9283 0.19393 22.1222 0.43317 22.1222H20.5668C20.8061 22.1222 21 21.9283 21 21.689C21 21.4498 20.8061 21.2559 20.5668 21.2559ZM5.02057 21.2559H2.30078V17.3485C2.30078 17.1841 2.4345 17.0504 2.59889 17.0504H4.72246C4.88685 17.0504 5.02057 17.1841 5.02057 17.3485V21.2559ZM11.8855 21.2559H9.16571V13.7111C9.16571 13.5467 9.29943 13.413 9.46381 13.413H11.5874C11.7517 13.413 11.8855 13.5467 11.8855 13.7111V21.2559ZM18.7504 21.2559H16.0306V7.46096C16.0306 7.29657 16.1643 7.16285 16.3287 7.16285H18.4523C18.6167 7.16285 18.7504 7.29657 18.7504 7.46096V21.2559Z" fill="white"/>
<path d="M19.6157 0.39943C19.6218 0.281218 19.5802 0.161014 19.4899 0.0707409C19.3997 -0.0195318 19.2795 -0.0611594 19.1612 -0.0550517C19.1543 -0.0553549 19.1474 -0.0560913 19.1403 -0.0560913H16.5196C16.2804 -0.0560913 16.0864 0.137839 16.0864 0.377079C16.0864 0.616319 16.2804 0.810249 16.5196 0.810249H18.1378L13.8556 5.09248L12.2407 3.47762C12.1595 3.3964 12.0493 3.35075 11.9344 3.35075C11.8196 3.35075 11.7094 3.3964 11.6282 3.47762L3.8411 11.2647C3.67195 11.4339 3.67195 11.7082 3.8411 11.8774C3.9257 11.9619 4.03654 12.0041 4.14739 12.0041C4.25824 12.0041 4.36913 11.9619 4.45369 11.8773L11.9344 4.39646L13.5493 6.01132C13.7185 6.18048 13.9927 6.18048 14.1619 6.01132L18.7504 1.42288V2.88743C18.7504 3.12667 18.9444 3.3206 19.1836 3.3206C19.4228 3.3206 19.6168 3.12667 19.6168 2.88743V0.420396C19.6168 0.413335 19.616 0.406448 19.6157 0.39943Z" fill="white"/>
</svg>
