<svg width="20" height="20" viewBox="0 0 20 20" fill="none" xmlns="http://www.w3.org/2000/svg">
<path fill-rule="evenodd" clip-rule="evenodd" d="M1.66663 7.5V9.16667C1.66663 9.66667 1.99996 10 2.49996 10C2.99996 10 3.33329 9.66667 3.33329 9.16667V7.5C3.33329 6.08333 4.41663 5 5.83329 5H15.5L13.5833 6.91667C13.25 7.25 13.25 7.75 13.5833 8.08333C13.75 8.25 13.9166 8.33333 14.1666 8.33333C14.4166 8.33333 14.5833 8.25 14.75 8.08333L18.0833 4.75C18.125 4.70833 18.1458 4.66667 18.1666 4.625C18.1875 4.58333 18.2083 4.54167 18.25 4.5C18.3333 4.25 18.3333 4 18.25 3.83333C18.25 3.75 18.1666 3.66667 18.0833 3.58333L14.75 0.25C14.4166 -0.0833333 13.9166 -0.0833333 13.5833 0.25C13.25 0.583333 13.25 1.08333 13.5833 1.41667L15.5 3.33333H5.83329C3.49996 3.33333 1.66663 5.16667 1.66663 7.5ZM16.6666 10.8333C16.6666 10.3333 17 10 17.5 10C18 10 18.3333 10.3333 18.3333 10.8333V12.5C18.3333 14.8333 16.5 16.6667 14.1666 16.6667H4.49996L6.41662 18.5833C6.74996 18.9167 6.74996 19.4167 6.41662 19.75C6.24996 19.9167 6.08329 20 5.83329 20C5.58329 20 5.41662 19.9167 5.24996 19.75L1.91662 16.4167C1.87495 16.375 1.85412 16.3333 1.83329 16.2917C1.81245 16.25 1.79162 16.2083 1.74996 16.1667C1.66662 15.9167 1.66662 15.6667 1.74996 15.5C1.74996 15.4167 1.83329 15.3333 1.91662 15.25L5.24996 11.9167C5.58329 11.5833 6.08329 11.5833 6.41662 11.9167C6.74996 12.25 6.74996 12.75 6.41662 13.0833L4.49996 15H14.1666C15.5833 15 16.6666 13.9167 16.6666 12.5V10.8333Z" fill="black"/>
<mask id="mask0" mask-type="alpha" maskUnits="userSpaceOnUse" x="1" y="0" width="18" height="20">
<path fill-rule="evenodd" clip-rule="evenodd" d="M1.66663 7.5V9.16667C1.66663 9.66667 1.99996 10 2.49996 10C2.99996 10 3.33329 9.66667 3.33329 9.16667V7.5C3.33329 6.08333 4.41663 5 5.83329 5H15.5L13.5833 6.91667C13.25 7.25 13.25 7.75 13.5833 8.08333C13.75 8.25 13.9166 8.33333 14.1666 8.33333C14.4166 8.33333 14.5833 8.25 14.75 8.08333L18.0833 4.75C18.125 4.70833 18.1458 4.66667 18.1666 4.625C18.1875 4.58333 18.2083 4.54167 18.25 4.5C18.3333 4.25 18.3333 4 18.25 3.83333C18.25 3.75 18.1666 3.66667 18.0833 3.58333L14.75 0.25C14.4166 -0.0833333 13.9166 -0.0833333 13.5833 0.25C13.25 0.583333 13.25 1.08333 13.5833 1.41667L15.5 3.33333H5.83329C3.49996 3.33333 1.66663 5.16667 1.66663 7.5ZM16.6666 10.8333C16.6666 10.3333 17 10 17.5 10C18 10 18.3333 10.3333 18.3333 10.8333V12.5C18.3333 14.8333 16.5 16.6667 14.1666 16.6667H4.49996L6.41662 18.5833C6.74996 18.9167 6.74996 19.4167 6.41662 19.75C6.24996 19.9167 6.08329 20 5.83329 20C5.58329 20 5.41662 19.9167 5.24996 19.75L1.91662 16.4167C1.87495 16.375 1.85412 16.3333 1.83329 16.2917C1.81245 16.25 1.79162 16.2083 1.74996 16.1667C1.66662 15.9167 1.66662 15.6667 1.74996 15.5C1.74996 15.4167 1.83329 15.3333 1.91662 15.25L5.24996 11.9167C5.58329 11.5833 6.08329 11.5833 6.41662 11.9167C6.74996 12.25 6.74996 12.75 6.41662 13.0833L4.49996 15H14.1666C15.5833 15 16.6666 13.9167 16.6666 12.5V10.8333Z" fill="white"/>
</mask>
<g mask="url(#mask0)">
<rect width="20" height="20" fill="white"/>
</g>
</svg>
