<svg width="22" height="22" viewBox="0 0 22 22" fill="none" xmlns="http://www.w3.org/2000/svg">
<path fill-rule="evenodd" clip-rule="evenodd" d="M11 0.916626C5.40835 0.916626 0.916687 5.40829 0.916687 11C0.916687 16.5916 5.40835 21.0833 11 21.0833C16.5917 21.0833 21.0834 16.5916 21.0834 11C21.0834 5.40829 16.5917 0.916626 11 0.916626ZM11 19.25C6.41669 19.25 2.75002 15.5833 2.75002 11C2.75002 6.41663 6.41669 2.74996 11 2.74996C15.5834 2.74996 19.25 6.41663 19.25 11C19.25 15.5833 15.5834 19.25 11 19.25ZM14.6667 11.9166C15.2167 11.9166 15.5834 11.55 15.5834 11C15.5834 10.45 15.2167 10.0833 14.6667 10.0833H11.9167V7.33329C11.9167 6.78329 11.55 6.41663 11 6.41663C10.45 6.41663 10.0834 6.78329 10.0834 7.33329V10.0833H7.33335C6.78335 10.0833 6.41669 10.45 6.41669 11C6.41669 11.55 6.78335 11.9166 7.33335 11.9166H10.0834V14.6666C10.0834 15.2166 10.45 15.5833 11 15.5833C11.55 15.5833 11.9167 15.2166 11.9167 14.6666V11.9166H14.6667Z" fill="white"/>
</svg>
