<svg width="22" height="22" viewBox="0 0 22 22" fill="none" xmlns="http://www.w3.org/2000/svg">
<path fill-rule="evenodd" clip-rule="evenodd" d="M20.1667 2.74998V7.33331C20.1667 7.88331 19.8 8.24998 19.25 8.24998C18.7 8.24998 18.3333 7.88331 18.3333 7.33331V4.94998L4.30833 18.975C4.125 19.1583 3.94167 19.25 3.66667 19.25C3.39167 19.25 3.20833 19.1583 3.025 18.975C2.65833 18.6083 2.65833 18.0583 3.025 17.6916L17.05 3.66665H14.6667C14.1167 3.66665 13.75 3.29998 13.75 2.74998C13.75 2.19998 14.1167 1.83331 14.6667 1.83331H19.25C19.3417 1.83331 19.525 1.83331 19.6167 1.92498C19.8 2.01665 19.9833 2.19998 20.075 2.38331C20.1667 2.47498 20.1667 2.65831 20.1667 2.74998ZM19.25 13.75C18.7 13.75 18.3333 14.1166 18.3333 14.6666V17.05L14.3917 13.1083C14.025 12.7416 13.475 12.7416 13.1083 13.1083C12.7417 13.475 12.7417 14.025 13.1083 14.3916L17.05 18.3333H14.6667C14.1167 18.3333 13.75 18.7 13.75 19.25C13.75 19.8 14.1167 20.1666 14.6667 20.1666H19.25C19.3417 20.1666 19.525 20.1666 19.6167 20.075C19.8 19.9833 19.9833 19.8 20.075 19.6166C20.1667 19.525 20.1667 19.3416 20.1667 19.25V14.6666C20.1667 14.1166 19.8 13.75 19.25 13.75ZM8.25 9.16665C7.975 9.16665 7.79167 9.07498 7.60833 8.89165L3.025 4.30831C2.65833 3.94165 2.65833 3.39165 3.025 3.02498C3.39167 2.65831 3.94167 2.65831 4.30833 3.02498L8.89167 7.60831C9.25833 7.97498 9.25833 8.52498 8.89167 8.89165C8.70833 9.07498 8.525 9.16665 8.25 9.16665Z" fill="white"/>
<mask id="mask0" mask-type="alpha" maskUnits="userSpaceOnUse" x="2" y="1" width="19" height="20">
<path fill-rule="evenodd" clip-rule="evenodd" d="M20.1667 2.74998V7.33331C20.1667 7.88331 19.8 8.24998 19.25 8.24998C18.7 8.24998 18.3333 7.88331 18.3333 7.33331V4.94998L4.30833 18.975C4.125 19.1583 3.94167 19.25 3.66667 19.25C3.39167 19.25 3.20833 19.1583 3.025 18.975C2.65833 18.6083 2.65833 18.0583 3.025 17.6916L17.05 3.66665H14.6667C14.1167 3.66665 13.75 3.29998 13.75 2.74998C13.75 2.19998 14.1167 1.83331 14.6667 1.83331H19.25C19.3417 1.83331 19.525 1.83331 19.6167 1.92498C19.8 2.01665 19.9833 2.19998 20.075 2.38331C20.1667 2.47498 20.1667 2.65831 20.1667 2.74998ZM19.25 13.75C18.7 13.75 18.3333 14.1166 18.3333 14.6666V17.05L14.3917 13.1083C14.025 12.7416 13.475 12.7416 13.1083 13.1083C12.7417 13.475 12.7417 14.025 13.1083 14.3916L17.05 18.3333H14.6667C14.1167 18.3333 13.75 18.7 13.75 19.25C13.75 19.8 14.1167 20.1666 14.6667 20.1666H19.25C19.3417 20.1666 19.525 20.1666 19.6167 20.075C19.8 19.9833 19.9833 19.8 20.075 19.6166C20.1667 19.525 20.1667 19.3416 20.1667 19.25V14.6666C20.1667 14.1166 19.8 13.75 19.25 13.75ZM8.25 9.16665C7.975 9.16665 7.79167 9.07498 7.60833 8.89165L3.025 4.30831C2.65833 3.94165 2.65833 3.39165 3.025 3.02498C3.39167 2.65831 3.94167 2.65831 4.30833 3.02498L8.89167 7.60831C9.25833 7.97498 9.25833 8.52498 8.89167 8.89165C8.70833 9.07498 8.525 9.16665 8.25 9.16665Z" fill="white"/>
</mask>
<g mask="url(#mask0)">
<rect width="22" height="22" fill="white"/>
</g>
</svg>
