<svg width="38" height="38" viewBox="0 0 38 38" fill="none" xmlns="http://www.w3.org/2000/svg">
<circle cx="18.6239" cy="19" r="18.5" fill="#F89B2D"/>
<path fill-rule="evenodd" clip-rule="evenodd" d="M18.4522 18.5735C19.3361 18.8086 21.2523 19.3184 21.5867 17.9775C21.9293 16.6006 20.052 16.1883 19.139 15.9879C19.0384 15.9658 18.9495 15.9462 18.8766 15.9283L18.2341 18.5166C18.2964 18.532 18.3698 18.5515 18.4522 18.5735ZM17.4519 22.7404C18.5108 23.0199 20.8187 23.6292 21.1843 22.1535C21.5622 20.6486 19.3272 20.1436 18.2304 19.8957C18.1055 19.8675 17.9953 19.8426 17.9055 19.82L17.1966 22.6741C17.2698 22.6923 17.3557 22.7149 17.4519 22.7404ZM24.4141 17.7891C24.2416 18.9592 23.5965 19.5255 22.7338 19.7242C23.9153 20.3393 24.5153 21.2843 23.9453 22.9157C23.2327 24.9483 21.5449 25.1208 19.2983 24.6933L18.7545 26.8796L17.438 26.5496L17.9744 24.397C17.6331 24.3107 17.2843 24.2204 16.928 24.1232L16.3879 26.2871L15.0714 25.9608L15.6153 23.7707C15.3077 23.6919 14.9964 23.6094 14.6776 23.5307L12.9636 23.1032L13.6162 21.5952C13.6162 21.5952 14.5876 21.8543 14.5763 21.8356C14.9477 21.9256 15.1127 21.6818 15.1802 21.5206L16.0391 18.0704C16.0878 18.0816 16.1328 18.0929 16.1778 18.1041C16.1253 18.0816 16.0803 18.0704 16.0428 18.0591L16.6579 15.5953C16.6729 15.314 16.5754 14.9615 16.0428 14.8302C16.0428 14.8115 15.0864 14.5902 15.0864 14.5902L15.4352 13.1839L17.2543 13.6376L17.2505 13.6451C17.5243 13.7126 17.8056 13.7764 18.0906 13.8439L18.6307 11.68L19.9472 12.0101L19.4183 14.1289C19.7709 14.2114 20.1272 14.2902 20.4722 14.3764L20.9973 12.2726L22.3138 12.5988L21.7774 14.7627C23.4389 15.3365 24.6541 16.1953 24.4141 17.7891ZM22.025 7.85863C15.5965 6.2573 9.08552 10.1688 7.48403 16.5966C5.87879 23.0282 9.79063 29.5386 16.2191 31.1399C22.6513 32.745 29.1623 28.8335 30.7638 22.4019C32.369 15.9741 28.4572 9.45997 22.025 7.85863Z" fill="white"/>
</svg>
