<svg width="48" height="49" viewBox="0 0 48 49" fill="none" xmlns="http://www.w3.org/2000/svg">
<circle cx="24" cy="24.5" r="24" fill="url(#paint0_linear)"/>
<path fill-rule="evenodd" clip-rule="evenodd" d="M23.7774 23.9464C24.9241 24.2515 27.4101 24.9128 27.8438 23.1733C28.2883 21.387 25.8528 20.8522 24.6684 20.5921C24.5379 20.5635 24.4226 20.5381 24.328 20.5148L23.4945 23.8727C23.5754 23.8927 23.6706 23.918 23.7774 23.9464ZM22.4797 29.352C23.8534 29.7147 26.8474 30.5052 27.3217 28.5907C27.8119 26.6384 24.9125 25.9832 23.4896 25.6617C23.3276 25.6251 23.1847 25.5928 23.0681 25.5634L22.1484 29.2661C22.2434 29.2896 22.3549 29.3191 22.4797 29.352ZM31.5118 22.9293C31.2879 24.4472 30.4511 25.1819 29.332 25.4397C30.8646 26.2376 31.6431 27.4636 30.9036 29.58C29.9791 32.2169 27.7896 32.4406 24.8751 31.886L24.1696 34.7224L22.4618 34.2943L23.1575 31.5017C22.7148 31.3898 22.2623 31.2725 21.8 31.1465L21.0994 33.9537L19.3916 33.5304L20.0971 30.6892C19.6981 30.587 19.2942 30.48 18.8807 30.3778L16.6571 29.8232L17.5037 27.8669C17.5037 27.8669 18.7639 28.2031 18.7493 28.1788C19.231 28.2956 19.4451 27.9793 19.5327 27.7701L20.6469 23.2942C20.7101 23.3088 20.7685 23.3234 20.8269 23.338C20.7588 23.3088 20.7004 23.2942 20.6518 23.2796L21.4497 20.0832C21.4692 19.7183 21.3427 19.261 20.6518 19.0907C20.6518 19.0664 19.411 18.7794 19.411 18.7794L19.8635 16.9549L22.2233 17.5436L22.2185 17.5533C22.5737 17.6409 22.9386 17.7236 23.3084 17.8112L24.009 15.004L25.7168 15.4321L25.0308 18.1809C25.4882 18.288 25.9504 18.3901 26.398 18.502L27.0792 15.7727L28.787 16.196L28.0912 19.0032C30.2467 19.7475 31.8232 20.8616 31.5118 22.9293ZM28.4122 10.0463C20.0725 7.9689 11.6259 13.0432 9.54825 21.3821C7.46577 29.7258 12.5406 38.1716 20.8802 40.2491C29.2247 42.3313 37.6714 37.257 39.749 28.9133C41.8315 20.5745 36.7567 12.1237 28.4122 10.0463Z" fill="white"/>
<defs>
<linearGradient id="paint0_linear" x1="24" y1="0.5" x2="24" y2="48.5" gradientUnits="userSpaceOnUse">
<stop stop-color="#F7931A"/>
<stop offset="1" stop-color="#FFD8C0"/>
</linearGradient>
</defs>
</svg>
