<svg width="96" height="96" viewBox="0 0 96 96" fill="none" xmlns="http://www.w3.org/2000/svg">
<rect x="50" width="67.584" height="67.2989" rx="17" transform="rotate(47.3573 50 0)" fill="url(#paint0_linear)"/>
<g clip-path="url(#clip0)">
<path d="M47.236 61.3092C47.236 61.302 47.2353 61.2951 47.235 61.2881C47.2348 61.2819 47.2346 61.2757 47.2341 61.2696C47.2329 61.2557 47.2311 61.2422 47.2288 61.2286C47.2282 61.225 47.2279 61.2214 47.2271 61.2179C47.2203 61.1824 47.2094 61.1484 47.1952 61.1162C47.1937 61.1128 47.192 61.1096 47.1904 61.1062C47.1846 61.0939 47.1783 61.0817 47.1715 61.0699C47.1688 61.0654 47.1661 61.0611 47.1633 61.0566C47.1568 61.0461 47.1498 61.0359 47.1425 61.026C47.1392 61.0216 47.136 61.0172 47.1327 61.0128C47.1241 61.0021 47.1152 60.9919 47.1058 60.982C47.1032 60.9792 47.1008 60.9762 47.0982 60.9735C47.0859 60.9611 47.0729 60.9494 47.0593 60.9383C47.0587 60.9378 47.0581 60.9372 47.0575 60.9367L44.7967 59.1209C44.5909 58.9556 44.2903 58.9886 44.1252 59.1942C43.96 59.3999 43.9929 59.7005 44.1986 59.8657L45.3115 60.7597C42.3678 60.4681 39.7131 59.2861 37.7251 57.3573C35.4698 55.1691 34.2278 52.1966 34.2278 48.9872C34.2278 48.7234 34.014 48.5095 33.7501 48.5095C33.4863 48.5095 33.2725 48.7234 33.2725 48.9872C33.2725 52.4571 34.6175 55.6732 37.0598 58.0429C39.2136 60.1327 42.084 61.409 45.259 61.7145L44.1444 62.4394C43.9233 62.5832 43.8606 62.8791 44.0044 63.1003C44.0959 63.241 44.249 63.3176 44.4053 63.3176C44.4945 63.3176 44.5849 63.2925 44.6652 63.2403L47.0187 61.7096C47.0195 61.7091 47.0201 61.7085 47.0208 61.708C47.0357 61.6982 47.05 61.6877 47.0636 61.6764C47.0656 61.6747 47.0674 61.6728 47.0694 61.6712C47.0805 61.6616 47.0913 61.6515 47.1015 61.6409C47.1054 61.6369 47.109 61.6326 47.1128 61.6285C47.1208 61.6196 47.1285 61.6105 47.1359 61.601C47.1394 61.5965 47.1428 61.5919 47.1461 61.5872C47.1535 61.5769 47.1605 61.5662 47.1671 61.5553C47.1694 61.5515 47.1719 61.5477 47.1741 61.5438C47.1914 61.5132 47.2055 61.4806 47.2157 61.4462C47.2165 61.4436 47.217 61.4409 47.2178 61.4382C47.2217 61.4242 47.2251 61.4099 47.2278 61.3953C47.2288 61.39 47.2295 61.3846 47.2302 61.3792C47.232 61.3672 47.2334 61.3551 47.2342 61.3428C47.2345 61.3396 47.2351 61.3363 47.2353 61.333C47.2355 61.3298 47.2351 61.3266 47.2353 61.3234C47.2354 61.3186 47.236 61.314 47.236 61.3092Z" fill="white"/>
<path d="M59.9688 37.2646C57.8149 35.175 54.9445 33.8987 51.7695 33.5931L52.8841 32.8681C53.1052 32.7243 53.168 32.4285 53.0241 32.2073C52.8802 31.9862 52.5843 31.9234 52.3633 32.0673L50.0098 33.5981C50.009 33.5986 50.0084 33.5992 50.0077 33.5996C49.9929 33.6094 49.9785 33.6199 49.9649 33.6313C49.9629 33.6329 49.9612 33.6347 49.9592 33.6364C49.948 33.646 49.9372 33.6561 49.927 33.6666C49.9231 33.6707 49.9195 33.6749 49.9157 33.679C49.9077 33.6879 49.9 33.6971 49.8926 33.7066C49.8891 33.7111 49.8857 33.7157 49.8823 33.7203C49.8749 33.7306 49.868 33.7413 49.8614 33.7522C49.8591 33.7561 49.8565 33.7598 49.8544 33.7638C49.837 33.7944 49.823 33.827 49.8127 33.8613C49.8119 33.8639 49.8114 33.8666 49.8107 33.8691C49.8067 33.8833 49.8033 33.8976 49.8007 33.9122C49.7997 33.9176 49.799 33.9229 49.7982 33.9283C49.7965 33.9403 49.7951 33.9524 49.7942 33.9647C49.794 33.968 49.7933 33.9712 49.7931 33.9745C49.7929 33.9777 49.7933 33.9809 49.7932 33.9841C49.7931 33.9889 49.7925 33.9935 49.7925 33.9983C49.7925 34.0055 49.7933 34.0124 49.7936 34.0194C49.7938 34.0256 49.794 34.0318 49.7945 34.038C49.7956 34.0518 49.7975 34.0653 49.7998 34.0789C49.8003 34.0825 49.8007 34.0861 49.8014 34.0896C49.8083 34.1251 49.8192 34.1591 49.8334 34.1913C49.8349 34.1948 49.8366 34.198 49.8382 34.2013C49.844 34.2137 49.8503 34.2258 49.8571 34.2376C49.8598 34.2421 49.8625 34.2465 49.8652 34.2509C49.8718 34.2614 49.8788 34.2716 49.8861 34.2815C49.8894 34.2859 49.8926 34.2903 49.8959 34.2947C49.9044 34.3054 49.9134 34.3156 49.9227 34.3255C49.9254 34.3283 49.9278 34.3313 49.9304 34.334C49.9427 34.3464 49.9557 34.3582 49.9693 34.3692C49.9699 34.3697 49.9704 34.3703 49.9711 34.3709L52.2319 36.1866C52.3201 36.2575 52.4258 36.2919 52.5306 36.2919C52.6704 36.2919 52.809 36.2308 52.9034 36.1133C53.0686 35.9076 53.0357 35.607 52.83 35.4418L51.717 34.5478C54.6608 34.8394 57.3155 36.0213 59.3035 37.9502C61.5588 40.1384 62.8008 43.111 62.8008 46.3203C62.8008 46.5841 63.0146 46.798 63.2785 46.798C63.5423 46.798 63.7561 46.5841 63.7561 46.3203C63.7561 42.8504 62.4111 39.6344 59.9688 37.2646Z" fill="white"/>
<path d="M40.9454 31C36.0129 31 32 35.0129 32 39.9454C32 44.878 36.0129 48.8909 40.9454 48.8909C45.878 48.8909 49.8909 44.878 49.8909 39.9454C49.8909 35.0129 45.878 31 40.9454 31ZM40.9454 47.9356C36.5397 47.9356 32.9553 44.3512 32.9553 39.9454C32.9553 35.5396 36.5397 31.9553 40.9454 31.9553C45.3512 31.9553 48.9356 35.5396 48.9356 39.9454C48.9356 44.3512 45.3512 47.9356 40.9454 47.9356Z" fill="white"/>
<path d="M47.7519 40.8006C47.4925 40.7496 47.242 40.9185 47.1912 41.1773C46.9477 42.4181 46.3444 43.5485 45.4464 44.4466C44.2441 45.6488 42.6457 46.3109 40.9454 46.3109C39.2451 46.3109 37.6466 45.6488 36.4444 44.4466C35.5486 43.5507 34.9458 42.4232 34.7013 41.186C34.6501 40.9272 34.3994 40.759 34.1401 40.81C33.8813 40.8612 33.713 41.1125 33.7642 41.3712C34.0455 42.7949 34.7387 44.0919 35.7689 45.1221C37.1516 46.5047 38.99 47.2662 40.9454 47.2662C42.9008 47.2662 44.7392 46.5047 46.1218 45.122C47.1546 44.0894 47.8485 42.7889 48.1286 41.3612C48.1794 41.1024 48.0107 40.8514 47.7519 40.8006Z" fill="white"/>
<path d="M48.0362 38.1203C47.7119 36.8557 47.0499 35.6969 46.1221 34.7689C44.7393 33.3863 42.901 32.6248 40.9456 32.6248C38.9901 32.6248 37.1518 33.3863 35.7691 34.7689C34.8433 35.6948 34.1821 36.8509 33.857 38.1122C33.7912 38.3677 33.9449 38.628 34.2004 38.6939C34.4561 38.7597 34.7163 38.606 34.7821 38.3506C35.0646 37.2545 35.6395 36.2495 36.4446 35.4444C37.6468 34.2421 39.2453 33.58 40.9456 33.58C42.6458 33.58 44.2443 34.2421 45.4465 35.4444C46.2535 36.2513 46.829 37.2587 47.1109 38.3576C47.1662 38.5733 47.3603 38.7167 47.5732 38.7167C47.6125 38.7167 47.6524 38.7118 47.6922 38.7016C47.9478 38.636 48.1017 38.3758 48.0362 38.1203Z" fill="white"/>
<path d="M56.0545 46.1091C51.1219 46.1091 47.109 50.122 47.109 55.0546C47.109 59.9871 51.1219 64 56.0545 64C60.987 64 64.9999 59.9871 64.9999 55.0546C64.9999 50.122 60.987 46.1091 56.0545 46.1091ZM56.0545 63.0448C51.6487 63.0448 48.0643 59.4604 48.0643 55.0546C48.0643 50.6488 51.6487 47.0644 56.0545 47.0644C60.4602 47.0644 64.0446 50.6488 64.0446 55.0546C64.0446 59.4604 60.4602 63.0448 56.0545 63.0448Z" fill="white"/>
<path d="M63.1728 53.3403C62.8589 52.0315 62.1874 50.8343 61.2312 49.878C59.8485 48.4953 58.0101 47.7339 56.0547 47.7339C54.0993 47.7339 52.261 48.4953 50.8782 49.878C49.9309 50.8254 49.2625 52.0105 48.9452 53.3052C48.8823 53.5615 49.0391 53.8201 49.2953 53.8829C49.5514 53.946 49.8101 53.7889 49.8728 53.5327C50.1486 52.4076 50.7298 51.3774 51.5537 50.5536C52.756 49.3513 54.3544 48.6892 56.0547 48.6892C57.7549 48.6892 59.3534 49.3513 60.5557 50.5536C61.3873 51.3852 61.971 52.4259 62.2439 53.5632C62.2964 53.7822 62.4922 53.9295 62.708 53.9294C62.7448 53.9294 62.7824 53.9251 62.8198 53.9162C63.0763 53.8546 63.2344 53.5968 63.1728 53.3403Z" fill="white"/>
<path d="M62.8534 55.9693C62.5947 55.9164 62.3425 56.0827 62.2894 56.3411C62.0392 57.5601 61.4396 58.6717 60.5556 59.5557C59.3533 60.758 57.7548 61.4201 56.0546 61.4201C54.3543 61.4201 52.7559 60.758 51.5536 59.5557C50.6766 58.6788 50.079 57.5767 49.8254 56.3686C49.7714 56.1104 49.518 55.9451 49.2599 55.9993C49.0017 56.0534 48.8363 56.3066 48.8905 56.5648C49.1823 57.9549 49.8696 59.2227 50.8781 60.2311C52.2608 61.6138 54.0991 62.3753 56.0546 62.3753C58.01 62.3753 59.8484 61.6138 61.2311 60.2311C62.2476 59.2146 62.9371 57.9358 63.2251 56.5332C63.2782 56.2748 63.1117 56.0223 62.8534 55.9693Z" fill="white"/>
<path d="M41.268 39.1808V36.9295C42.0443 36.9849 42.3327 37.3398 42.5988 37.3398C42.9315 37.3398 43.0868 36.9184 43.0868 36.7077C43.0868 36.1643 42.0222 35.9314 41.268 35.9092V35.6098C41.268 35.4767 41.1017 35.3547 40.9353 35.3547C40.7468 35.3547 40.6137 35.4767 40.6137 35.6098V35.9314C39.5602 36.0423 38.5066 36.5968 38.5066 37.9942C38.5066 39.4137 39.6157 39.8129 40.6137 40.1678V42.7739C39.4826 42.6852 39.1831 41.9089 38.8172 41.9089C38.5399 41.9089 38.307 42.2749 38.307 42.5411C38.307 43.0845 39.2385 43.8276 40.6137 43.8497V44.1935C40.6137 44.3265 40.7468 44.4486 40.9353 44.4486C41.1017 44.4486 41.268 44.3266 41.268 44.1935V43.8165C42.4658 43.6501 43.2865 42.896 43.2865 41.5319C43.2865 40.0237 42.2328 39.5357 41.268 39.1808ZM40.6803 38.9701C40.0925 38.7483 39.6156 38.5154 39.6157 37.8833C39.6157 37.3066 40.0592 37.0294 40.6803 36.9518V38.9701ZM41.2015 42.7518V40.4118C41.7449 40.6447 42.1774 40.9552 42.1774 41.6539C42.1774 42.286 41.8004 42.6408 41.2015 42.7518Z" fill="white"/>
<path d="M57.7817 55.1323C58.2857 54.9093 58.6056 54.3665 58.6056 53.5619C58.6056 52.5451 58.0957 52.1133 57.4076 51.9587H57.4322V51.5065C57.4322 51.2567 57.2297 51.0542 56.9799 51.0542C56.7302 51.0542 56.5277 51.2566 56.5277 51.5065V51.8849H56.0332V51.5065C56.0332 51.2567 55.8307 51.0542 55.581 51.0542C55.3312 51.0542 55.1287 51.2566 55.1287 51.5065V51.8849H55.0014H54.8831H54.4401C54.1761 51.8849 53.962 52.099 53.962 52.363C53.962 52.6228 54.1694 52.8337 54.4275 52.8404V58.0155C54.1693 58.0222 53.962 58.2331 53.962 58.4929C53.962 58.7569 54.176 58.971 54.4401 58.971H54.8831H55.0014H55.1287V59.3732C55.1287 59.623 55.3311 59.8255 55.581 59.8255C55.8307 59.8255 56.0332 59.6231 56.0332 59.3732V58.971H56.5277V59.3732C56.5277 59.623 56.7302 59.8255 56.9799 59.8255C57.2297 59.8255 57.4322 59.6231 57.4322 59.3732V58.921H57.3865C58.2016 58.7584 58.78 58.1794 58.78 56.9353V56.7511C58.7801 55.7624 58.3827 55.365 57.7817 55.1323ZM55.4455 52.7961H56.5797C57.1904 52.7961 57.578 53.0773 57.578 53.7267C57.578 54.3858 57.2582 54.7251 56.5991 54.7251H55.4455V52.7961ZM57.7526 56.8578C57.7526 57.6914 57.3454 58.0597 56.6572 58.0597H55.4455V55.5394H56.6572C57.3454 55.5394 57.7526 55.8496 57.7526 56.7027V56.8578Z" fill="white"/>
</g>
<defs>
<linearGradient id="paint0_linear" x1="61.3203" y1="-1.57787e-05" x2="124.895" y2="5.58678" gradientUnits="userSpaceOnUse">
<stop stop-color="#4C84FF"/>
<stop offset="1" stop-color="#6BCEEE"/>
</linearGradient>
<clipPath id="clip0">
<rect width="33" height="33" fill="white" transform="translate(32 31)"/>
</clipPath>
</defs>
</svg>
