<svg width="18" height="14" viewBox="0 0 18 14" fill="none" xmlns="http://www.w3.org/2000/svg">
<path fill-rule="evenodd" clip-rule="evenodd" d="M15.75 0.43042H2.25C0.975 0.43042 0 1.40542 0 2.68042V11.6804C0 12.9554 0.975 13.9304 2.25 13.9304H15.75C17.025 13.9304 18 12.9554 18 11.6804V2.68042C18 1.40542 17.025 0.43042 15.75 0.43042ZM2.25 1.93042H15.75C16.2 1.93042 16.5 2.23042 16.5 2.68042V4.93042H1.5V2.68042C1.5 2.23042 1.8 1.93042 2.25 1.93042ZM2.25 12.4304H15.75C16.2 12.4304 16.5 12.1304 16.5 11.6804V6.43042H1.5V11.6804C1.5 12.1304 1.8 12.4304 2.25 12.4304Z" fill="white"/>
</svg>
