<svg width="26" height="32" viewBox="0 0 26 32" fill="none" xmlns="http://www.w3.org/2000/svg">
<path d="M22.5258 6.0684C21.1148 5.10498 19.5597 4.61568 17.906 4.61568C14.4126 4.61568 11.3858 6.92182 9.74346 10.3052H16.0095C17.0563 10.3052 17.906 11.1548 17.906 12.2017C17.906 13.2485 17.0563 14.0982 16.0095 14.0982H8.58281C8.49557 14.7164 8.4235 15.3461 8.4235 15.9947C8.4235 16.6433 8.49557 17.2729 8.58281 17.8912H17.906C18.9528 17.8912 19.8025 18.7408 19.8025 19.7876C19.8025 20.8345 18.9528 21.6841 17.906 21.6841H9.74346C11.3858 25.0675 14.4126 27.3736 17.906 27.3736C19.5597 27.3736 21.1148 26.8843 22.5258 25.9209C23.3906 25.333 24.5741 25.5492 25.162 26.4178C25.7537 27.2826 25.5299 28.4622 24.6651 29.0539C22.6396 30.4346 20.3031 31.1666 17.906 31.1666C12.3492 31.1666 7.59284 27.2333 5.61669 21.6841H2.73402C1.68715 21.6841 0.837524 20.8345 0.837524 19.7876C0.837524 18.7408 1.68715 17.8912 2.73402 17.8912H4.79741C4.72913 17.2615 4.63051 16.6433 4.63051 15.9947C4.63051 15.3461 4.72913 14.7278 4.79741 14.0982H2.73402C1.68715 14.0982 0.837524 13.2485 0.837524 12.2017C0.837524 11.1548 1.68715 10.3052 2.73402 10.3052H5.61669C7.59284 4.75602 12.3492 0.822689 17.906 0.822689C20.3031 0.822689 22.6396 1.55474 24.6651 2.93539C25.5299 3.52709 25.7537 4.70671 25.162 5.57151C24.5741 6.43632 23.3906 6.65631 22.5258 6.0684Z" fill="#16285E"/>
</svg>
