<svg width="60" height="60" viewBox="0 0 60 60" fill="none" xmlns="http://www.w3.org/2000/svg">
<g clip-path="url(#clip0)">
<path d="M45 60.0001C44.835 60.0001 44.67 59.9676 44.515 59.9026C43.92 59.6501 30 53.6351 30 41.3401V30.8926C30 30.3551 30.3425 29.8801 30.85 29.7076L44.6 25.0651C44.86 24.9776 45.1425 24.9776 45.4 25.0651L59.15 29.7076C59.6575 29.8776 60 30.3551 60 30.8926V41.3401C60 53.6351 46.08 59.6501 45.485 59.9026C45.33 59.9676 45.165 60.0001 45 60.0001ZM32.5 31.7926V41.3401C32.5 50.8001 42.6375 56.2351 45 57.3726C47.36 56.2326 57.5 50.7751 57.5 41.3401V31.7926L45 27.5701L32.5 31.7926Z" fill="#16285E"/>
<path d="M43.7498 47.5001C43.7273 47.5001 43.7023 47.5001 43.6823 47.4976C43.3248 47.4776 42.9973 47.3101 42.7748 47.0301L37.7748 40.7801C37.3448 40.2401 37.4298 39.4551 37.9698 39.0226C38.5123 38.5976 39.2948 38.6826 39.7273 39.2176L43.8523 44.3751L51.6148 36.6151C52.1023 36.1276 52.8948 36.1276 53.3823 36.6151C53.8698 37.1026 53.8698 37.8951 53.3823 38.3826L44.6323 47.1326C44.3998 47.3676 44.0798 47.5001 43.7498 47.5001Z" fill="#16285E"/>
<path d="M46.25 20H8.75C3.925 20 0 16.075 0 11.25C0 6.425 3.925 2.5 8.75 2.5H46.25C51.075 2.5 55 6.425 55 11.25C55 16.075 51.075 20 46.25 20ZM8.75 5C5.3025 5 2.5 7.8025 2.5 11.25C2.5 14.6975 5.3025 17.5 8.75 17.5H46.25C49.6975 17.5 52.5 14.6975 52.5 11.25C52.5 7.8025 49.6975 5 46.25 5H8.75Z" fill="#16285E"/>
<path d="M11.25 15C9.1825 15 7.5 13.3175 7.5 11.25C7.5 9.1825 9.1825 7.5 11.25 7.5C13.3175 7.5 15 9.1825 15 11.25C15 13.3175 13.3175 15 11.25 15ZM11.25 10C10.5625 10 10 10.5625 10 11.25C10 11.9375 10.5625 12.5 11.25 12.5C11.9375 12.5 12.5 11.9375 12.5 11.25C12.5 10.5625 11.9375 10 11.25 10Z" fill="#16285E"/>
<path d="M23.75 15C21.6825 15 20 13.3175 20 11.25C20 9.1825 21.6825 7.5 23.75 7.5C25.8175 7.5 27.5 9.1825 27.5 11.25C27.5 13.3175 25.8175 15 23.75 15ZM23.75 10C23.0625 10 22.5 10.5625 22.5 11.25C22.5 11.9375 23.0625 12.5 23.75 12.5C24.4375 12.5 25 11.9375 25 11.25C25 10.5625 24.4375 10 23.75 10Z" fill="#16285E"/>
<path d="M23.75 35H8.75C3.925 35 0 31.075 0 26.25C0 23.915 0.91 21.72 2.565 20.065C4.22 18.41 6.415 17.5 8.75 17.5H46.25C48.205 17.5 50.0475 18.1275 51.57 19.315C52.115 19.74 52.2125 20.525 51.7875 21.07C51.3625 21.6125 50.5775 21.71 50.0325 21.2875C48.9525 20.445 47.645 20 46.25 20H8.75C7.085 20 5.515 20.6525 4.3325 21.8325C3.15 23.0125 2.5 24.585 2.5 26.25C2.5 29.6975 5.3025 32.5 8.75 32.5H23.75C24.44 32.5 25 33.06 25 33.75C25 34.44 24.44 35 23.75 35Z" fill="#16285E"/>
<path d="M11.25 30C9.1825 30 7.5 28.3175 7.5 26.25C7.5 24.1825 9.1825 22.5 11.25 22.5C13.3175 22.5 15 24.1825 15 26.25C15 28.3175 13.3175 30 11.25 30ZM11.25 25C10.5625 25 10 25.5625 10 26.25C10 26.9375 10.5625 27.5 11.25 27.5C11.9375 27.5 12.5 26.9375 12.5 26.25C12.5 25.5625 11.9375 25 11.25 25Z" fill="#16285E"/>
<path d="M23.75 30C21.6825 30 20 28.3175 20 26.25C20 24.1825 21.6825 22.5 23.75 22.5C25.8175 22.5 27.5 24.1825 27.5 26.25C27.5 28.3175 25.8175 30 23.75 30ZM23.75 25C23.0625 25 22.5 25.5625 22.5 26.25C22.5 26.9375 23.0625 27.5 23.75 27.5C24.4375 27.5 25 26.9375 25 26.25C25 25.5625 24.4375 25 23.75 25Z" fill="#16285E"/>
<path d="M23.75 50H8.75C3.925 50 0 46.075 0 41.25C0 38.915 0.91 36.72 2.565 35.065C4.22 33.41 6.415 32.5 8.75 32.5H23.75C24.44 32.5 25 33.06 25 33.75C25 34.44 24.44 35 23.75 35H8.75C7.085 35 5.515 35.6525 4.3325 36.8325C3.15 38.0125 2.5 39.585 2.5 41.25C2.5 44.6975 5.3025 47.5 8.75 47.5H23.75C24.44 47.5 25 48.06 25 48.75C25 49.44 24.44 50 23.75 50Z" fill="#16285E"/>
<path d="M11.25 45C9.1825 45 7.5 43.3175 7.5 41.25C7.5 39.1825 9.1825 37.5 11.25 37.5C13.3175 37.5 15 39.1825 15 41.25C15 43.3175 13.3175 45 11.25 45ZM11.25 40C10.5625 40 10 40.5625 10 41.25C10 41.9375 10.5625 42.5 11.25 42.5C11.9375 42.5 12.5 41.9375 12.5 41.25C12.5 40.5625 11.9375 40 11.25 40Z" fill="#16285E"/>
<path d="M23.75 45C21.6825 45 20 43.3175 20 41.25C20 39.1825 21.6825 37.5 23.75 37.5C25.8175 37.5 27.5 39.1825 27.5 41.25C27.5 43.3175 25.8175 45 23.75 45ZM23.75 40C23.0625 40 22.5 40.5625 22.5 41.25C22.5 41.9375 23.0625 42.5 23.75 42.5C24.4375 42.5 25 41.9375 25 41.25C25 40.5625 24.4375 40 23.75 40Z" fill="#16285E"/>
</g>
<defs>
<clipPath id="clip0">
<rect width="60" height="60" fill="white"/>
</clipPath>
</defs>
</svg>
