<svg width="60" height="60" viewBox="0 0 60 60" fill="none" xmlns="http://www.w3.org/2000/svg">
<g clip-path="url(#clip0)">
<path d="M60 32.8125C60 27.9302 56.5371 23.9214 52.1651 23.5809C51.6465 21.8333 50.2454 20.4621 48.48 19.9864C47.3027 10.3087 39.4441 2.92969 30 2.92969C20.5559 2.92969 12.6973 10.3087 11.5201 19.9864C9.75469 20.4621 8.35348 21.8332 7.83504 23.5809C7.68316 23.5928 7.53246 23.6091 7.38293 23.6297V12.1875C7.38293 11.2167 6.5959 10.4297 5.62512 10.4297C4.65434 10.4297 3.8673 11.2167 3.8673 12.1875V25.0366C1.54266 26.6871 0 29.5549 0 32.8125C0 37.6948 3.46289 41.7036 7.83492 42.0441C8.35184 43.7862 9.74566 45.1539 11.5032 45.6337C12.2521 49.9924 16.056 53.3203 20.625 53.3203H21.0315C21.767 55.4977 23.8276 57.0703 26.25 57.0703H33.75C36.787 57.0703 39.2578 54.5995 39.2578 51.5625C39.2578 48.5255 36.787 46.0547 33.75 46.0547H26.25C23.8276 46.0547 21.767 47.6273 21.0315 49.8047H20.625C17.9668 49.8047 15.7254 47.9888 15.0743 45.5325C17.1424 44.8191 18.6328 42.8543 18.6328 40.5469V25.0781C18.6328 22.7626 17.1321 20.7923 15.0527 20.0852C16.1508 12.3209 22.4527 6.44531 30 6.44531C37.5473 6.44531 43.8492 12.3209 44.9473 20.0852C42.8679 20.7923 41.3672 22.7626 41.3672 25.0781V40.5469C41.3672 43.4546 43.7329 45.8203 46.6406 45.8203H47.1094C49.4971 45.8203 51.5181 44.2247 52.1651 42.0441C56.5371 41.7036 60 37.6948 60 32.8125ZM26.25 49.5703H33.75C34.8485 49.5703 35.7422 50.464 35.7422 51.5625C35.7422 52.661 34.8485 53.5547 33.75 53.5547H26.25C25.1515 53.5547 24.2578 52.661 24.2578 51.5625C24.2578 50.464 25.1515 49.5703 26.25 49.5703ZM3.51562 32.8125C3.51562 30.025 5.32324 27.6248 7.61719 27.1539V38.471C5.32324 38.0002 3.51562 35.6 3.51562 32.8125ZM15.1172 40.5469C15.1172 41.5161 14.3286 42.3047 13.3594 42.3047H12.8906C11.9214 42.3047 11.1328 41.5161 11.1328 40.5469C11.1328 34.9062 11.1328 30.2925 11.1328 25.0781C11.1328 24.1089 11.9214 23.3203 12.8906 23.3203H13.3594C14.3286 23.3203 15.1172 24.1089 15.1172 25.0781V40.5469ZM48.8672 40.5469C48.8672 41.5161 48.0786 42.3047 47.1094 42.3047H46.6406C45.6714 42.3047 44.8828 41.5161 44.8828 40.5469V25.0781C44.8828 24.1089 45.6714 23.3203 46.6406 23.3203H47.1094C48.0786 23.3203 48.8672 24.1089 48.8672 25.0781V40.5469ZM52.3828 38.4711V27.154C54.6768 27.625 56.4844 30.0251 56.4844 32.8126C56.4844 35.6002 54.6768 38.0002 52.3828 38.4711Z" fill="#16285E"/>
</g>
<defs>
<clipPath id="clip0">
<rect width="60" height="60" fill="white"/>
</clipPath>
</defs>
</svg>
